G04*
G04 #@! TF.GenerationSoftware,Altium Limited,Altium Designer,18.1.11 (251)*
G04*
G04 Layer_Physical_Order=1*
G04 Layer_Color=255*
%FSLAX25Y25*%
%MOIN*%
G70*
G01*
G75*
%ADD18R,0.13504X0.03347*%
%ADD19R,0.07087X0.07480*%
%ADD20R,0.01575X0.05315*%
%ADD21R,0.03543X0.03937*%
%ADD22R,0.05118X0.05512*%
%ADD23O,0.02362X0.08071*%
%ADD24O,0.08071X0.02362*%
%ADD25R,0.03937X0.03543*%
%ADD26R,0.02480X0.03268*%
%ADD27R,0.11024X0.09449*%
%ADD28R,0.05512X0.06299*%
%ADD29O,0.04528X0.04134*%
%ADD30O,0.02953X0.05118*%
%ADD31C,0.06299*%
%ADD32R,0.06299X0.06299*%
%ADD33C,0.06496*%
%ADD34R,0.06496X0.06496*%
%ADD35C,0.27559*%
%ADD36C,0.13583*%
%ADD37C,0.05591*%
%ADD38C,0.01200*%
%ADD39C,0.01500*%
%ADD40C,0.02000*%
%ADD41C,0.02520*%
%ADD42C,0.02520*%
%ADD43C,0.05000*%
G36*
X220981Y329520D02*
X212750D01*
X212614Y330001D01*
X213439Y330506D01*
X215207Y332017D01*
X216718Y333786D01*
X217934Y335770D01*
X218824Y337919D01*
X219367Y340181D01*
X219510Y342000D01*
X189938D01*
X190082Y340181D01*
X190625Y337919D01*
X191515Y335770D01*
X192730Y333786D01*
X194241Y332017D01*
X196010Y330506D01*
X196835Y330001D01*
X196699Y329520D01*
X177644D01*
X177626Y329549D01*
X177511Y329903D01*
X177504Y330019D01*
X178145Y330661D01*
X178186Y330761D01*
X178262Y330837D01*
X178622Y331705D01*
Y331813D01*
X178663Y331912D01*
Y335608D01*
X178622Y335707D01*
Y335815D01*
X178262Y336683D01*
X178186Y336759D01*
X178145Y336859D01*
X177481Y337523D01*
X177381Y337564D01*
X177305Y337640D01*
X176437Y338000D01*
X176329D01*
X176230Y338041D01*
X169264D01*
X168881Y337883D01*
X168723Y337500D01*
Y330319D01*
X168257Y329937D01*
X168098Y329985D01*
Y333260D01*
X163555D01*
Y334260D01*
X168098D01*
Y338500D01*
X168392Y338878D01*
X168502D01*
X168502Y338878D01*
X168931Y338964D01*
X169295Y339207D01*
X174093Y344005D01*
X174093Y344005D01*
X174336Y344369D01*
X174422Y344798D01*
Y356598D01*
X174922Y356623D01*
X174936Y356473D01*
X175382Y355004D01*
X176105Y353650D01*
X177079Y352464D01*
X178265Y351490D01*
X179619Y350767D01*
X181088Y350321D01*
X182115Y350220D01*
Y358000D01*
X182615D01*
Y358500D01*
X190395D01*
X190294Y359527D01*
X189848Y360996D01*
X189125Y362350D01*
X188151Y363536D01*
X186964Y364510D01*
X185611Y365233D01*
X185575Y365244D01*
X185649Y365744D01*
X188709D01*
Y369000D01*
X185150D01*
Y369500D01*
X184650D01*
Y373256D01*
X181591D01*
Y372756D01*
X180716D01*
X180386Y373256D01*
X180425Y373453D01*
X180425Y373453D01*
Y374532D01*
X181575D01*
X181847Y374144D01*
Y374031D01*
X184118D01*
Y377000D01*
X184618D01*
Y377500D01*
X187390D01*
Y378496D01*
X187500Y378978D01*
X187929Y379064D01*
X188293Y379307D01*
X190365Y381379D01*
X192809D01*
X192813Y381376D01*
X193500Y381239D01*
X194187Y381376D01*
X194769Y381765D01*
X194878Y381929D01*
X195378Y381777D01*
Y373000D01*
X195378Y373000D01*
X195464Y372571D01*
X195707Y372207D01*
X200174Y367739D01*
X200010Y367197D01*
X199813Y367158D01*
X199231Y366769D01*
X198842Y366187D01*
X198706Y365500D01*
X198842Y364813D01*
X199231Y364231D01*
X199126Y363712D01*
X190350Y354936D01*
X189908Y355201D01*
X190294Y356473D01*
X190395Y357500D01*
X183115D01*
Y350220D01*
X184142Y350321D01*
X185414Y350707D01*
X185679Y350265D01*
X184365Y348951D01*
X179867D01*
X179769Y349098D01*
X179187Y349487D01*
X178500Y349623D01*
X177813Y349487D01*
X177231Y349098D01*
X176842Y348516D01*
X176706Y347829D01*
X176842Y347143D01*
X177231Y346560D01*
X177813Y346171D01*
X178500Y346035D01*
X179187Y346171D01*
X179769Y346560D01*
X179867Y346708D01*
X184829D01*
X184829Y346708D01*
X185258Y346793D01*
X185622Y347036D01*
X201293Y362707D01*
X201293Y362707D01*
X201536Y363071D01*
X201622Y363500D01*
X201622Y363500D01*
Y364133D01*
X201769Y364231D01*
X202158Y364813D01*
X202197Y365010D01*
X202739Y365175D01*
X206707Y361207D01*
X207071Y360964D01*
X207500Y360878D01*
X207500Y360878D01*
X212350D01*
Y358350D01*
X219650D01*
Y365650D01*
X212350D01*
Y363122D01*
X207965D01*
X197622Y373465D01*
Y383371D01*
X197622Y383371D01*
X197536Y383800D01*
X197293Y384164D01*
X197293Y384164D01*
X194647Y386810D01*
X194839Y387272D01*
X197587D01*
X199378Y385480D01*
Y379572D01*
X199231Y379474D01*
X198842Y378892D01*
X198706Y378205D01*
X198842Y377518D01*
X199231Y376936D01*
X199813Y376547D01*
X200500Y376411D01*
X201187Y376547D01*
X201769Y376936D01*
X202158Y377518D01*
X202294Y378205D01*
X202158Y378892D01*
X201769Y379474D01*
X201622Y379572D01*
Y385945D01*
X201622Y385945D01*
X201536Y386374D01*
X201293Y386738D01*
X201293Y386738D01*
X201221Y386810D01*
X201413Y387272D01*
X204252D01*
Y391618D01*
X190270D01*
Y405382D01*
X204252D01*
Y409728D01*
X198529D01*
Y418718D01*
X202281Y422471D01*
X212350D01*
Y421079D01*
X211964Y420762D01*
X211800Y420794D01*
X211518Y420738D01*
X211100Y420822D01*
X211100Y420822D01*
X207500D01*
X207500Y420822D01*
X207071Y420736D01*
X206707Y420493D01*
X205488Y419275D01*
X205245Y418911D01*
X205160Y418481D01*
X205160Y418481D01*
Y410659D01*
X205160Y410659D01*
X205245Y410229D01*
X205488Y409866D01*
X206610Y408744D01*
Y373750D01*
X206610Y373750D01*
X206695Y373321D01*
X206938Y372957D01*
X208688Y371207D01*
X208688Y371207D01*
X209052Y370964D01*
X209481Y370879D01*
X212514D01*
X212812Y370160D01*
X213397Y369397D01*
X214159Y368812D01*
X215047Y368444D01*
X216000Y368319D01*
X216953Y368444D01*
X217841Y368812D01*
X218603Y369397D01*
X219188Y370160D01*
X219556Y371047D01*
X219681Y372000D01*
X219556Y372953D01*
X219188Y373840D01*
X218603Y374603D01*
X217841Y375188D01*
X216953Y375556D01*
X216000Y375681D01*
X215047Y375556D01*
X214159Y375188D01*
X213397Y374603D01*
X212812Y373840D01*
X212514Y373122D01*
X209946D01*
X208853Y374215D01*
Y390575D01*
X209353Y390914D01*
X209531Y390878D01*
X209531Y390879D01*
X212514D01*
X212812Y390160D01*
X213397Y389397D01*
X214159Y388812D01*
X215047Y388444D01*
X216000Y388319D01*
X216953Y388444D01*
X217841Y388812D01*
X218603Y389397D01*
X219188Y390160D01*
X219556Y391047D01*
X219681Y392000D01*
X219556Y392953D01*
X219188Y393841D01*
X218603Y394603D01*
X217841Y395188D01*
X216953Y395556D01*
X216000Y395681D01*
X215047Y395556D01*
X214159Y395188D01*
X213397Y394603D01*
X212812Y393841D01*
X212514Y393122D01*
X210553D01*
Y415383D01*
X210700Y415481D01*
X211089Y416063D01*
X211226Y416750D01*
X211213Y416813D01*
X211638Y417238D01*
X211800Y417206D01*
X212487Y417342D01*
X213069Y417731D01*
X213458Y418313D01*
X213594Y419000D01*
X213458Y419687D01*
X213348Y419850D01*
X213616Y420350D01*
X219650D01*
Y427650D01*
X212350D01*
Y425529D01*
X201534D01*
X201229Y425833D01*
X200733Y426165D01*
X200148Y426281D01*
X196937D01*
X196670Y426781D01*
X196850Y427051D01*
X196920Y427402D01*
X191941D01*
Y428402D01*
X196920D01*
X196850Y428753D01*
X196397Y429430D01*
X196449Y429643D01*
X196586Y429930D01*
X199051D01*
X199051Y429930D01*
X199480Y430015D01*
X199844Y430258D01*
X201293Y431707D01*
X201293Y431707D01*
X201536Y432071D01*
X201622Y432500D01*
Y436085D01*
X208415Y442878D01*
X212514D01*
X212812Y442160D01*
X213397Y441397D01*
X214159Y440812D01*
X215047Y440444D01*
X216000Y440319D01*
X216953Y440444D01*
X217841Y440812D01*
X218603Y441397D01*
X219188Y442160D01*
X219556Y443047D01*
X219681Y444000D01*
X219556Y444953D01*
X219188Y445841D01*
X218603Y446603D01*
X217841Y447188D01*
X216953Y447556D01*
X216000Y447681D01*
X215047Y447556D01*
X214159Y447188D01*
X213397Y446603D01*
X212812Y445841D01*
X212514Y445122D01*
X207950D01*
X207950Y445122D01*
X207521Y445036D01*
X207157Y444793D01*
X207157Y444793D01*
X205240Y442876D01*
X204852Y443195D01*
X204936Y443321D01*
X205022Y443750D01*
X205022Y443750D01*
Y462035D01*
X205865Y462878D01*
X212514D01*
X212812Y462159D01*
X213397Y461397D01*
X214159Y460812D01*
X215047Y460444D01*
X216000Y460319D01*
X216953Y460444D01*
X217841Y460812D01*
X218603Y461397D01*
X219188Y462159D01*
X219556Y463047D01*
X219681Y464000D01*
X219556Y464953D01*
X219188Y465840D01*
X218603Y466603D01*
X217841Y467188D01*
X216953Y467556D01*
X216000Y467681D01*
X215047Y467556D01*
X214159Y467188D01*
X213397Y466603D01*
X212812Y465840D01*
X212514Y465122D01*
X205400D01*
X205400Y465122D01*
X204971Y465036D01*
X204607Y464793D01*
X203783Y463970D01*
X203322Y464161D01*
Y472035D01*
X204165Y472878D01*
X212514D01*
X212812Y472159D01*
X213397Y471397D01*
X214159Y470812D01*
X215047Y470444D01*
X216000Y470319D01*
X216953Y470444D01*
X217841Y470812D01*
X218603Y471397D01*
X219188Y472159D01*
X219556Y473047D01*
X219681Y474000D01*
X219556Y474953D01*
X219188Y475841D01*
X218603Y476603D01*
X217841Y477188D01*
X216953Y477556D01*
X216000Y477681D01*
X215047Y477556D01*
X214159Y477188D01*
X213397Y476603D01*
X212812Y475841D01*
X212514Y475122D01*
X203700D01*
X203700Y475122D01*
X203271Y475036D01*
X202907Y474793D01*
X202083Y473970D01*
X201622Y474161D01*
Y482035D01*
X202465Y482878D01*
X212514D01*
X212812Y482160D01*
X213397Y481397D01*
X214159Y480812D01*
X215047Y480444D01*
X216000Y480319D01*
X216953Y480444D01*
X217841Y480812D01*
X218603Y481397D01*
X219188Y482160D01*
X219556Y483047D01*
X219681Y484000D01*
X219556Y484953D01*
X219188Y485841D01*
X218603Y486603D01*
X217841Y487188D01*
X216953Y487556D01*
X216000Y487681D01*
X215047Y487556D01*
X214159Y487188D01*
X213397Y486603D01*
X212812Y485841D01*
X212514Y485122D01*
X202000D01*
X202000Y485122D01*
X201571Y485036D01*
X201207Y484793D01*
X200383Y483970D01*
X199922Y484161D01*
Y492035D01*
X200765Y492878D01*
X212514D01*
X212812Y492160D01*
X213397Y491397D01*
X214159Y490812D01*
X215047Y490444D01*
X216000Y490319D01*
X216953Y490444D01*
X217841Y490812D01*
X218603Y491397D01*
X219188Y492160D01*
X219556Y493047D01*
X219681Y494000D01*
X219556Y494953D01*
X219188Y495841D01*
X218603Y496603D01*
X217841Y497188D01*
X216953Y497556D01*
X216000Y497681D01*
X215047Y497556D01*
X214159Y497188D01*
X213397Y496603D01*
X212812Y495841D01*
X212514Y495122D01*
X200300D01*
X200300Y495122D01*
X199871Y495036D01*
X199507Y494793D01*
X198007Y493293D01*
X197764Y492929D01*
X197678Y492500D01*
X197678Y492500D01*
Y457673D01*
X197178Y457334D01*
X197000Y457370D01*
X197000Y457370D01*
X196068D01*
X196007Y457460D01*
X195451Y457832D01*
X194795Y457962D01*
X189086D01*
X188431Y457832D01*
X187874Y457460D01*
X187814Y457370D01*
X184975D01*
X184141Y458203D01*
X184460Y458592D01*
X184592Y458503D01*
X185248Y458373D01*
X185904Y458503D01*
X186460Y458875D01*
X186832Y459431D01*
X186962Y460087D01*
Y465795D01*
X186832Y466451D01*
X186460Y467007D01*
X186370Y467068D01*
Y474535D01*
X186517Y474633D01*
X186906Y475215D01*
X187042Y475902D01*
X186906Y476589D01*
X186517Y477171D01*
X185935Y477560D01*
X185248Y477696D01*
X184561Y477560D01*
X183979Y477171D01*
X183590Y476589D01*
X183454Y475902D01*
X183581Y475263D01*
X183477Y475137D01*
X183180Y474930D01*
X182882Y475129D01*
X182500Y475205D01*
Y473000D01*
X181500D01*
Y475205D01*
X181118Y475129D01*
X180470Y474695D01*
X179970Y474861D01*
Y480642D01*
X180446Y480920D01*
X180943Y480793D01*
X181226Y480110D01*
X181827Y479327D01*
X182610Y478726D01*
X183522Y478348D01*
X184500Y478220D01*
X185478Y478348D01*
X186390Y478726D01*
X187173Y479327D01*
X187774Y480110D01*
X188152Y481022D01*
X188280Y482000D01*
X188152Y482978D01*
X187774Y483890D01*
X187173Y484673D01*
X186390Y485274D01*
X185478Y485652D01*
X184500Y485780D01*
X183522Y485652D01*
X182610Y485274D01*
X182270Y485013D01*
X181770Y485259D01*
Y486400D01*
X181770Y486400D01*
X181684Y486829D01*
X181441Y487193D01*
X181441Y487193D01*
X180022Y488613D01*
Y490405D01*
X180522Y490504D01*
X180789Y489858D01*
X181470Y488970D01*
X182358Y488289D01*
X183391Y487861D01*
X184000Y487781D01*
Y492000D01*
Y496219D01*
X183391Y496139D01*
X182358Y495711D01*
X181470Y495030D01*
X180789Y494142D01*
X180522Y493496D01*
X180022Y493595D01*
Y496648D01*
X180022Y496648D01*
X179936Y497077D01*
X179693Y497441D01*
X179693Y497441D01*
X178654Y498481D01*
X178861Y498981D01*
X220981D01*
X220981Y329520D01*
D02*
G37*
G36*
X171931Y494753D02*
X171827Y494673D01*
X171226Y493890D01*
X170848Y492978D01*
X170720Y492000D01*
X170848Y491022D01*
X171226Y490110D01*
X171827Y489327D01*
X172610Y488726D01*
X173522Y488348D01*
X174500Y488220D01*
X175478Y488348D01*
X176390Y488726D01*
X177173Y489327D01*
X177278Y489464D01*
X177778Y489294D01*
Y488148D01*
X177778Y488148D01*
X177825Y487915D01*
X177562Y487555D01*
X177525Y487518D01*
X177442Y487470D01*
X166715D01*
X166049Y488135D01*
X166147Y488625D01*
X166390Y488726D01*
X167173Y489327D01*
X167774Y490110D01*
X168152Y491022D01*
X168280Y492000D01*
X168152Y492978D01*
X167774Y493890D01*
X167173Y494673D01*
X167069Y494753D01*
X167229Y495227D01*
X171771D01*
X171931Y494753D01*
D02*
G37*
G36*
X152044Y498481D02*
X150607Y497043D01*
X150364Y496679D01*
X150278Y496250D01*
X150278Y496250D01*
Y459000D01*
X150278Y459000D01*
X150364Y458571D01*
X150509Y458353D01*
X150244Y457905D01*
X150235Y457898D01*
X149913Y457962D01*
X148222D01*
Y461600D01*
X148222Y461600D01*
X148136Y462029D01*
X147893Y462393D01*
X147893Y462393D01*
X145793Y464493D01*
X145429Y464736D01*
X145000Y464822D01*
X145000Y464822D01*
X112500D01*
X112500Y464822D01*
X112071Y464736D01*
X111707Y464493D01*
X111707Y464493D01*
X109981Y462767D01*
X109556Y463047D01*
X109681Y464000D01*
X109556Y464953D01*
X109188Y465840D01*
X108603Y466603D01*
X107841Y467188D01*
X106953Y467556D01*
X106000Y467681D01*
X105047Y467556D01*
X104159Y467188D01*
X103397Y466603D01*
X102812Y465840D01*
X102444Y464953D01*
X102319Y464000D01*
X102444Y463047D01*
X102812Y462159D01*
X103397Y461397D01*
X104159Y460812D01*
X105047Y460444D01*
X106000Y460319D01*
X106953Y460444D01*
X107841Y460812D01*
X108603Y461397D01*
X108893Y461775D01*
X109072Y461747D01*
X109378Y461586D01*
Y456414D01*
X108878Y456244D01*
X108603Y456603D01*
X107841Y457188D01*
X106953Y457556D01*
X106000Y457681D01*
X105047Y457556D01*
X104159Y457188D01*
X103397Y456603D01*
X102812Y455840D01*
X102514Y455122D01*
X101800D01*
X101800Y455122D01*
X101520Y455066D01*
X101020Y455357D01*
Y498981D01*
X128396D01*
X128455Y498481D01*
X127919Y498352D01*
X125769Y497461D01*
X123786Y496246D01*
X122017Y494735D01*
X120506Y492966D01*
X119291Y490982D01*
X118400Y488833D01*
X117857Y486571D01*
X117714Y484752D01*
X147286D01*
X147143Y486571D01*
X146600Y488833D01*
X145709Y490982D01*
X144494Y492966D01*
X142983Y494735D01*
X141214Y496246D01*
X139231Y497461D01*
X137081Y498352D01*
X136545Y498481D01*
X136604Y498981D01*
X151837D01*
X152044Y498481D01*
D02*
G37*
G36*
X156780Y496465D02*
X156108Y495793D01*
X155865Y495429D01*
X155780Y495000D01*
X155780Y495000D01*
Y483404D01*
X155280Y483252D01*
X155269Y483269D01*
X154687Y483658D01*
X154000Y483794D01*
X153313Y483658D01*
X153022Y483463D01*
X152522Y483730D01*
Y495785D01*
X153663Y496927D01*
X156589D01*
X156780Y496465D01*
D02*
G37*
G36*
X161931Y494753D02*
X161827Y494673D01*
X161226Y493890D01*
X160848Y492978D01*
X160720Y492000D01*
X160848Y491022D01*
X161226Y490110D01*
X161827Y489327D01*
X162610Y488726D01*
X163378Y488408D01*
Y488098D01*
X163378Y488098D01*
X163464Y487669D01*
X163707Y487305D01*
X164802Y486210D01*
X164611Y485748D01*
X160752D01*
Y478252D01*
X168248D01*
Y485227D01*
X171771D01*
X171931Y484753D01*
X171827Y484673D01*
X171226Y483890D01*
X170848Y482978D01*
X170720Y482000D01*
X170848Y481022D01*
X171226Y480110D01*
X171827Y479327D01*
X172610Y478726D01*
X173310Y478436D01*
X173360Y477946D01*
X172785Y477372D01*
X163801D01*
X163801Y477372D01*
X163372Y477286D01*
X163008Y477043D01*
X159258Y473293D01*
X159015Y472929D01*
X158930Y472500D01*
X158930Y472500D01*
Y467068D01*
X158839Y467007D01*
X158285Y466986D01*
X158023Y467254D01*
Y494535D01*
X158714Y495227D01*
X161770D01*
X161931Y494753D01*
D02*
G37*
G36*
X177727Y479271D02*
Y474690D01*
X177286Y474455D01*
X177025Y474629D01*
X176643Y474705D01*
Y472500D01*
Y470295D01*
X177025Y470371D01*
X177092Y470416D01*
X177590Y470170D01*
X177622Y469856D01*
X177035Y469269D01*
X166498D01*
X166069Y469184D01*
X165705Y468941D01*
X165462Y468577D01*
X165377Y468148D01*
Y467167D01*
X165138Y467007D01*
X165026Y466839D01*
X164526D01*
X164413Y467007D01*
X163857Y467379D01*
X163201Y467509D01*
X162545Y467379D01*
X161989Y467007D01*
X161434Y466986D01*
X161173Y467254D01*
Y472035D01*
X162135Y472998D01*
X162584Y472758D01*
X167007D01*
X166931Y473140D01*
X166431Y473887D01*
X165684Y474387D01*
X164802Y474562D01*
X164738Y474550D01*
X164435Y474999D01*
X164520Y475128D01*
X173250D01*
X173250Y475128D01*
X173679Y475214D01*
X174043Y475457D01*
X175293Y476707D01*
X175293Y476707D01*
X175536Y477071D01*
X175622Y477500D01*
X175622Y477500D01*
Y478408D01*
X176390Y478726D01*
X177173Y479327D01*
X177253Y479431D01*
X177727Y479271D01*
D02*
G37*
G36*
X158839Y458875D02*
X159395Y458503D01*
X160051Y458373D01*
X160707Y458503D01*
X161263Y458875D01*
X161818Y458896D01*
X162079Y458628D01*
Y454336D01*
X161579Y454095D01*
X161187Y454358D01*
X160500Y454494D01*
X159813Y454358D01*
X159231Y453969D01*
X159133Y453822D01*
X155122D01*
Y458825D01*
X155622Y458977D01*
X155690Y458875D01*
X156246Y458503D01*
X156902Y458373D01*
X157557Y458503D01*
X158114Y458875D01*
X158226Y459044D01*
X158726D01*
X158839Y458875D01*
D02*
G37*
G36*
X145978Y461135D02*
Y457962D01*
X144205D01*
X143549Y457832D01*
X142993Y457460D01*
X142621Y456904D01*
X142491Y456248D01*
X142621Y455592D01*
X142993Y455036D01*
X143014Y454482D01*
X142746Y454220D01*
X136296D01*
X136296Y454220D01*
X135866Y454135D01*
X135503Y453892D01*
X135503Y453891D01*
X135235Y453624D01*
X127469D01*
Y454774D01*
X126122D01*
Y456531D01*
X126134D01*
Y461469D01*
X121819D01*
X121591Y461469D01*
X121319Y461856D01*
Y461969D01*
X119047D01*
Y459000D01*
Y456032D01*
X121319D01*
Y456144D01*
X121591Y456531D01*
X121819Y456531D01*
X123878D01*
Y454774D01*
X122531D01*
Y450231D01*
X123878D01*
Y448620D01*
X123878Y448620D01*
X123964Y448191D01*
X124207Y447827D01*
X124799Y447235D01*
Y446134D01*
X124180D01*
Y441866D01*
X127661D01*
Y446134D01*
X127042D01*
Y447700D01*
X126957Y448129D01*
X126714Y448493D01*
X126713Y448493D01*
X126122Y449085D01*
Y450231D01*
X127469D01*
Y451381D01*
X135700D01*
X135700Y451381D01*
X136129Y451467D01*
X136493Y451710D01*
X136760Y451977D01*
X142932D01*
X142993Y451886D01*
X143161Y451774D01*
Y451274D01*
X142993Y451161D01*
X142621Y450605D01*
X142491Y449949D01*
X142621Y449293D01*
X142772Y449067D01*
X142670Y448397D01*
X142632Y448372D01*
X142150Y447650D01*
X142080Y447299D01*
X147059D01*
Y446299D01*
X142080D01*
X142150Y445948D01*
X142603Y445271D01*
X142551Y445058D01*
X142414Y444771D01*
X133750D01*
X133750Y444771D01*
X133321Y444686D01*
X132957Y444443D01*
X132957Y444443D01*
X131047Y442533D01*
X130804Y442169D01*
X130718Y441740D01*
X130719Y441740D01*
Y438130D01*
X127528D01*
Y433980D01*
X127028D01*
Y433480D01*
X123272D01*
Y429831D01*
X122817Y429722D01*
X119622D01*
X119576Y429831D01*
X119908Y430331D01*
X121228D01*
Y437630D01*
X114716D01*
Y430958D01*
X114213Y430858D01*
X114102Y430784D01*
X113662Y431019D01*
Y440785D01*
X114901Y442025D01*
X115401Y441866D01*
Y441866D01*
X118881D01*
Y446134D01*
X118263D01*
Y447335D01*
X118706Y447779D01*
X118707Y447779D01*
X118950Y448143D01*
X119035Y448572D01*
X119035Y448572D01*
Y450231D01*
X120382D01*
Y454774D01*
X115445D01*
Y450231D01*
X116792D01*
Y449037D01*
X116348Y448593D01*
X116105Y448229D01*
X116019Y447800D01*
X116019Y447800D01*
Y446134D01*
X115401D01*
Y444722D01*
X114890D01*
X114461Y444636D01*
X114097Y444393D01*
X114097Y444393D01*
X112122Y442418D01*
X111622Y442625D01*
Y461235D01*
X112965Y462578D01*
X144535D01*
X145978Y461135D01*
D02*
G37*
G36*
X165229Y458628D02*
Y456250D01*
X165229Y456250D01*
X165314Y455821D01*
X165557Y455457D01*
X173992Y447022D01*
Y428622D01*
X158152D01*
X158152Y428622D01*
X158023Y428727D01*
Y431155D01*
X158036Y431219D01*
Y449037D01*
X158036Y449037D01*
X157951Y449466D01*
X157708Y449830D01*
X156421Y451117D01*
X156612Y451578D01*
X159133D01*
X159231Y451431D01*
X159813Y451042D01*
X160500Y450906D01*
X161187Y451042D01*
X161769Y451431D01*
X161863Y451572D01*
X162171Y451619D01*
X162475Y451589D01*
X166480Y447584D01*
X166446Y447410D01*
X166582Y446723D01*
X166971Y446141D01*
X167553Y445752D01*
X168240Y445616D01*
X168927Y445752D01*
X169509Y446141D01*
X169898Y446723D01*
X170034Y447410D01*
X169898Y448097D01*
X169509Y448679D01*
X168927Y449068D01*
X168240Y449204D01*
X168066Y449170D01*
X164322Y452914D01*
Y458814D01*
X164413Y458875D01*
X164967Y458896D01*
X165229Y458628D01*
D02*
G37*
G36*
X187433Y454840D02*
X187484Y454627D01*
X187032Y453949D01*
X186962Y453598D01*
X191941D01*
Y452598D01*
X186962D01*
X187032Y452247D01*
X187514Y451526D01*
X187552Y451501D01*
X187654Y450831D01*
X187503Y450605D01*
X187372Y449949D01*
X187503Y449293D01*
X187874Y448737D01*
X188043Y448624D01*
Y448124D01*
X187874Y448011D01*
X187503Y447455D01*
X187372Y446799D01*
X187503Y446143D01*
X187874Y445587D01*
X188043Y445474D01*
Y444974D01*
X187874Y444862D01*
X187503Y444306D01*
X187372Y443650D01*
X187403Y443494D01*
X186953Y443193D01*
X186816Y443285D01*
X186435Y443361D01*
Y441156D01*
X185435D01*
Y443361D01*
X185053Y443285D01*
X184962Y443224D01*
X184522Y443460D01*
Y452633D01*
X184669Y452731D01*
X185058Y453313D01*
X185194Y454000D01*
X185070Y454626D01*
X185122Y454807D01*
X185293Y455126D01*
X187296D01*
X187433Y454840D01*
D02*
G37*
G36*
X142993Y439288D02*
X143161Y439175D01*
Y438675D01*
X142993Y438562D01*
X142929Y438468D01*
X142521Y438387D01*
X142157Y438143D01*
X142157Y438143D01*
X141574Y437560D01*
X141400Y437594D01*
X140713Y437458D01*
X140131Y437069D01*
X139742Y436487D01*
X139606Y435800D01*
X139742Y435113D01*
X140131Y434531D01*
X140713Y434142D01*
X141400Y434006D01*
X142033Y434132D01*
X142090Y434140D01*
X142559Y433857D01*
X142621Y433545D01*
X142993Y432989D01*
X143161Y432876D01*
Y432376D01*
X142993Y432263D01*
X142621Y431707D01*
X142491Y431051D01*
X142621Y430395D01*
X142993Y429839D01*
X143014Y429285D01*
X142746Y429023D01*
X137965D01*
X137022Y429966D01*
Y436483D01*
X137169Y436581D01*
X137558Y437163D01*
X137694Y437850D01*
X137558Y438537D01*
X137329Y438878D01*
X137597Y439378D01*
X142932D01*
X142993Y439288D01*
D02*
G37*
G36*
X182278Y452502D02*
Y437301D01*
X182278Y437301D01*
X182364Y436872D01*
X182607Y436508D01*
X185707Y433408D01*
X185707Y433408D01*
X186071Y433165D01*
X186500Y433079D01*
X187814D01*
X187874Y432989D01*
X188043Y432876D01*
Y432376D01*
X187874Y432263D01*
X187503Y431707D01*
X187372Y431051D01*
X187503Y430395D01*
X187654Y430169D01*
X187552Y429499D01*
X187514Y429474D01*
X187272Y429112D01*
X186996Y429125D01*
X186723Y429189D01*
X186369Y429719D01*
X185787Y430108D01*
X185110Y430242D01*
X181525Y433828D01*
Y452500D01*
X182025Y452711D01*
X182278Y452502D01*
D02*
G37*
G36*
X174501Y426326D02*
X174501Y426326D01*
X174865Y426083D01*
X175294Y425998D01*
X175294Y425998D01*
X176172D01*
X176302Y425782D01*
X176383Y425498D01*
X176041Y424987D01*
X175905Y424300D01*
X176041Y423613D01*
X176430Y423031D01*
X176472Y423003D01*
X176277Y422532D01*
X175799Y422627D01*
X175143Y422497D01*
X174587Y422125D01*
X174474Y421956D01*
X173974D01*
X173862Y422125D01*
X173305Y422497D01*
X172650Y422627D01*
X171994Y422497D01*
X171438Y422125D01*
X171325Y421956D01*
X170825D01*
X170712Y422125D01*
X170156Y422497D01*
X169500Y422627D01*
X168844Y422497D01*
X168288Y422125D01*
X167734Y422104D01*
X167472Y422372D01*
Y423750D01*
X167619Y423849D01*
X168008Y424431D01*
X168145Y425118D01*
X168008Y425804D01*
X167919Y425938D01*
X168155Y426378D01*
X174449D01*
X174501Y426326D01*
D02*
G37*
G36*
X164782Y425938D02*
X164693Y425804D01*
X164556Y425118D01*
X164693Y424431D01*
X165082Y423849D01*
X165229Y423750D01*
Y422186D01*
X165138Y422125D01*
X165026Y421956D01*
X164526D01*
X164413Y422125D01*
X163857Y422497D01*
X163201Y422627D01*
X162545Y422497D01*
X161989Y422125D01*
X161876Y421956D01*
X161376D01*
X161263Y422125D01*
X160707Y422497D01*
X160051Y422627D01*
X159395Y422497D01*
X158839Y422125D01*
X158285Y422104D01*
X158023Y422372D01*
Y425785D01*
X158616Y426378D01*
X164546D01*
X164782Y425938D01*
D02*
G37*
G36*
X136707Y427109D02*
X136707Y427108D01*
X137071Y426865D01*
X137500Y426780D01*
X137500Y426780D01*
X142932D01*
X142993Y426690D01*
X143161Y426577D01*
Y426077D01*
X142993Y425964D01*
X142621Y425408D01*
X142491Y424752D01*
X142621Y424096D01*
X142993Y423540D01*
X143549Y423168D01*
X144205Y423038D01*
X149478D01*
Y415767D01*
X149331Y415669D01*
X148942Y415087D01*
X148806Y414400D01*
X148942Y413713D01*
X149331Y413131D01*
X149913Y412742D01*
X150600Y412606D01*
X151287Y412742D01*
X151869Y413131D01*
X152196Y413621D01*
X152901Y413150D01*
X153252Y413080D01*
Y418059D01*
X154252D01*
Y413080D01*
X154603Y413150D01*
X155280Y413603D01*
X155493Y413552D01*
X155780Y413414D01*
Y408766D01*
X149097Y402084D01*
X142512D01*
Y406186D01*
X130488D01*
Y402084D01*
X116250D01*
X116250Y402084D01*
X116250Y402084D01*
X114543D01*
X113662Y402965D01*
Y427381D01*
X114102Y427616D01*
X114213Y427542D01*
X114900Y427406D01*
X115587Y427542D01*
X116169Y427931D01*
X116267Y428078D01*
X117095D01*
X117164Y427980D01*
X117279Y427807D01*
X117288Y427801D01*
X117294Y427792D01*
X117470Y427680D01*
X117638Y427568D01*
X117656Y427469D01*
X117624Y427055D01*
X117618Y427054D01*
X116871Y426554D01*
X116371Y425807D01*
X116295Y425425D01*
X120705D01*
X120629Y425807D01*
X120129Y426554D01*
X119495Y426978D01*
X119615Y427478D01*
X130440D01*
X130440Y427478D01*
X130869Y427564D01*
X131233Y427807D01*
X131957Y428530D01*
X132419Y428339D01*
Y426768D01*
X131863Y426658D01*
X131281Y426269D01*
X130892Y425687D01*
X130756Y425000D01*
X130892Y424313D01*
X131281Y423731D01*
X131863Y423342D01*
X132419Y423232D01*
Y421715D01*
X130845Y420141D01*
X130283D01*
Y422669D01*
X123772D01*
Y415370D01*
X130283D01*
Y417898D01*
X131309D01*
X131310Y417898D01*
X131739Y417983D01*
X132103Y418226D01*
X134333Y420457D01*
X134333Y420457D01*
X134576Y420821D01*
X134662Y421250D01*
Y424900D01*
X134662Y424900D01*
X134662Y424900D01*
Y428475D01*
X134936Y428619D01*
X135162Y428654D01*
X136707Y427109D01*
D02*
G37*
G36*
X109378Y414414D02*
X108878Y414244D01*
X108603Y414603D01*
X107841Y415188D01*
X106953Y415556D01*
X106000Y415681D01*
X105047Y415556D01*
X104159Y415188D01*
X103397Y414603D01*
X103295Y414470D01*
X102822Y414631D01*
Y420350D01*
X109378D01*
Y414414D01*
D02*
G37*
G36*
X188026Y397719D02*
X187527Y397451D01*
X187425Y397519D01*
X186739Y397656D01*
X186052Y397519D01*
X185693Y397279D01*
X185193Y397540D01*
Y398330D01*
X181418D01*
X181226Y398792D01*
X182891Y400457D01*
X182891Y400457D01*
X183135Y400821D01*
X183220Y401250D01*
Y413932D01*
X183310Y413993D01*
X183423Y414161D01*
X183923D01*
X184036Y413993D01*
X184592Y413621D01*
X185248Y413491D01*
X185904Y413621D01*
X186460Y413993D01*
X186832Y414549D01*
X186962Y415205D01*
Y416937D01*
X188026D01*
Y397719D01*
D02*
G37*
G36*
X182824Y423959D02*
X183188Y423716D01*
X183617Y423630D01*
X183617Y423631D01*
X187814D01*
X187874Y423540D01*
X188431Y423168D01*
X189086Y423038D01*
X194795D01*
X195451Y423168D01*
X195532Y423223D01*
X198054D01*
X198246Y422761D01*
X195919Y420433D01*
X195587Y419937D01*
X195471Y419352D01*
Y409728D01*
X190270D01*
Y417852D01*
X190184Y418281D01*
X189941Y418645D01*
X189941Y418645D01*
X189734Y418852D01*
X189370Y419095D01*
X188941Y419181D01*
X188941Y419181D01*
X186962D01*
Y420913D01*
X186832Y421569D01*
X186460Y422125D01*
X185904Y422497D01*
X185248Y422627D01*
X184592Y422497D01*
X184036Y422125D01*
X183923Y421956D01*
X183423D01*
X183310Y422125D01*
X182754Y422497D01*
X182098Y422627D01*
X181442Y422497D01*
X180886Y422125D01*
X180332Y422104D01*
X180070Y422372D01*
Y424200D01*
X180070Y424200D01*
X179985Y424629D01*
X179742Y424993D01*
X179742Y424993D01*
X179642Y425093D01*
X179278Y425336D01*
X179261Y425377D01*
X179229Y425498D01*
X179605Y425998D01*
X180785D01*
X182824Y423959D01*
D02*
G37*
G36*
X165138Y413993D02*
X165694Y413621D01*
X166350Y413491D01*
X167006Y413621D01*
X167562Y413993D01*
X168117Y414014D01*
X168303Y413823D01*
X168265Y413292D01*
X168231Y413269D01*
X167842Y412687D01*
X167706Y412000D01*
X167842Y411313D01*
X168231Y410731D01*
X168813Y410342D01*
X169500Y410206D01*
X170187Y410342D01*
X170769Y410731D01*
X171028Y411119D01*
X171528Y410968D01*
Y407577D01*
X171381Y407478D01*
X170992Y406896D01*
X170855Y406210D01*
X170992Y405523D01*
X171381Y404941D01*
X171814Y404651D01*
X171662Y404151D01*
X171250D01*
X171250Y404152D01*
X170821Y404066D01*
X170457Y403823D01*
X170457Y403823D01*
X160394Y393760D01*
X160220Y393794D01*
X159533Y393658D01*
X158951Y393269D01*
X158562Y392687D01*
X158426Y392000D01*
X158562Y391313D01*
X158951Y390731D01*
X159533Y390342D01*
X160220Y390206D01*
X160907Y390342D01*
X161489Y390731D01*
X161878Y391313D01*
X162014Y392000D01*
X161980Y392174D01*
X169843Y400037D01*
X170306Y399800D01*
X170442Y399113D01*
X170478Y399059D01*
Y390372D01*
X169978Y390099D01*
X169733Y390148D01*
X169719Y390169D01*
X169137Y390558D01*
X168450Y390694D01*
X167763Y390558D01*
X167181Y390169D01*
X166792Y389587D01*
X166656Y388900D01*
X166792Y388213D01*
X167181Y387631D01*
X167763Y387242D01*
X168426Y387111D01*
Y370528D01*
X167672Y369775D01*
X166944D01*
X166714Y370331D01*
X166185Y371019D01*
X165497Y371548D01*
X164696Y371880D01*
X163835Y371993D01*
X162975Y371880D01*
X162173Y371548D01*
X161485Y371019D01*
X160957Y370331D01*
X160625Y369529D01*
X160512Y368669D01*
X160625Y367809D01*
X160957Y367007D01*
X161485Y366319D01*
X162173Y365791D01*
X162725Y365562D01*
Y358428D01*
X158215Y353918D01*
X157755Y354070D01*
X157739Y354082D01*
X157722Y354578D01*
X159201Y356058D01*
X159477Y356471D01*
X159574Y356959D01*
Y374472D01*
X160202Y375099D01*
X160867D01*
X160957Y374881D01*
X161485Y374193D01*
X162173Y373665D01*
X162975Y373333D01*
X163835Y373219D01*
X164696Y373333D01*
X165497Y373665D01*
X166185Y374193D01*
X166714Y374881D01*
X167046Y375683D01*
X167159Y376543D01*
X167046Y377403D01*
X166714Y378205D01*
X166185Y378893D01*
X165497Y379422D01*
X164696Y379754D01*
X163835Y379867D01*
X162975Y379754D01*
X162173Y379422D01*
X161485Y378893D01*
X160957Y378205D01*
X160726Y377648D01*
X159674D01*
X159186Y377552D01*
X158773Y377275D01*
X157787Y376290D01*
X157314Y376523D01*
X157316Y376543D01*
X157203Y377403D01*
X156871Y378205D01*
X156343Y378893D01*
X155655Y379422D01*
X154853Y379754D01*
X153993Y379867D01*
X153132Y379754D01*
X152331Y379422D01*
X151643Y378893D01*
X151114Y378205D01*
X150782Y377403D01*
X150669Y376543D01*
X150782Y375683D01*
X151114Y374881D01*
X151643Y374193D01*
X151750Y374110D01*
X151783Y373611D01*
X148769Y370598D01*
X148526Y370234D01*
X148440Y369805D01*
X148441Y369805D01*
Y368315D01*
X147941Y368163D01*
X147629Y368629D01*
X146882Y369129D01*
X146500Y369205D01*
Y367000D01*
Y364795D01*
X146882Y364871D01*
X147629Y365371D01*
X147941Y365837D01*
X148441Y365685D01*
Y361238D01*
X148440Y361238D01*
X148526Y360809D01*
X148769Y360445D01*
X152760Y356454D01*
Y348672D01*
X152260Y348425D01*
X151874Y348722D01*
X151127Y349031D01*
X150630Y349097D01*
Y346043D01*
Y342990D01*
X151127Y343055D01*
X151874Y343364D01*
X152122Y343555D01*
X152622Y343308D01*
Y341626D01*
X162358D01*
Y341126D01*
X161860Y341122D01*
X139423D01*
X122016Y358529D01*
X121652Y358772D01*
X121223Y358857D01*
X121223Y358857D01*
X109650D01*
Y365650D01*
X102822D01*
Y369369D01*
X103295Y369530D01*
X103397Y369397D01*
X104159Y368812D01*
X105047Y368444D01*
X106000Y368319D01*
X106953Y368444D01*
X107841Y368812D01*
X108603Y369397D01*
X109188Y370160D01*
X109486Y370879D01*
X125050D01*
X125050Y370878D01*
X125479Y370964D01*
X125843Y371207D01*
X127593Y372957D01*
X127593Y372957D01*
X127836Y373321D01*
X127922Y373750D01*
Y383685D01*
X130615Y386379D01*
X155150D01*
X155150Y386378D01*
X155579Y386464D01*
X155943Y386707D01*
X157193Y387957D01*
X157193Y387957D01*
X157436Y388321D01*
X157522Y388750D01*
X157522Y388750D01*
Y401235D01*
X158915Y402629D01*
X161951D01*
X161951Y402628D01*
X162380Y402714D01*
X162744Y402957D01*
X163994Y404207D01*
X163994Y404207D01*
X164237Y404571D01*
X164250Y404634D01*
X164780Y404739D01*
X165026Y404371D01*
X165774Y403871D01*
X166156Y403795D01*
Y406000D01*
Y408205D01*
X165774Y408129D01*
X165026Y407629D01*
X164822Y407324D01*
X164322Y407476D01*
Y413932D01*
X164413Y413993D01*
X164526Y414161D01*
X165026D01*
X165138Y413993D01*
D02*
G37*
G36*
X158930Y413746D02*
Y407667D01*
X158782Y407569D01*
X158394Y406987D01*
X158257Y406300D01*
X158394Y405613D01*
X158555Y405372D01*
X158516Y405187D01*
X158307Y404843D01*
X158021Y404786D01*
X157657Y404543D01*
X157657Y404543D01*
X155607Y402493D01*
X155364Y402129D01*
X155278Y401700D01*
X155278Y401700D01*
Y389215D01*
X154685Y388621D01*
X130150D01*
X130150Y388622D01*
X129721Y388536D01*
X129357Y388293D01*
X129357Y388293D01*
X126007Y384943D01*
X125764Y384579D01*
X125678Y384150D01*
X125678Y384150D01*
Y374215D01*
X124585Y373122D01*
X109486D01*
X109188Y373840D01*
X108603Y374603D01*
X108470Y374705D01*
X108631Y375179D01*
X112500D01*
X112500Y375178D01*
X112929Y375264D01*
X113293Y375507D01*
X114893Y377107D01*
X114893Y377107D01*
X115136Y377471D01*
X115222Y377900D01*
X115222Y377900D01*
Y398347D01*
X116715Y399840D01*
X130488D01*
Y395738D01*
X142512D01*
Y399840D01*
X149562D01*
X149562Y399840D01*
X149991Y399926D01*
X150355Y400169D01*
X157695Y407509D01*
X157695Y407509D01*
X157938Y407872D01*
X158023Y408302D01*
Y413932D01*
X158114Y413993D01*
X158668Y414014D01*
X158930Y413746D01*
D02*
G37*
G36*
X113285Y400169D02*
X113309Y400153D01*
X113350Y399735D01*
X113283Y399569D01*
X113064Y399241D01*
X112978Y398812D01*
X112978Y398812D01*
Y378365D01*
X112035Y377421D01*
X103000D01*
X103000Y377422D01*
X102571Y377336D01*
X102207Y377093D01*
X102207Y377093D01*
X101481Y376368D01*
X101020Y376559D01*
Y396791D01*
X101295Y397005D01*
X101520Y397056D01*
X101672Y396920D01*
X101792Y396313D01*
X102181Y395731D01*
X102763Y395342D01*
X103379Y395220D01*
X103489Y395006D01*
X103544Y394716D01*
X103397Y394603D01*
X102812Y393841D01*
X102444Y392953D01*
X102319Y392000D01*
X102444Y391047D01*
X102812Y390160D01*
X103397Y389397D01*
X104159Y388812D01*
X105047Y388444D01*
X106000Y388319D01*
X106953Y388444D01*
X107841Y388812D01*
X108603Y389397D01*
X108878Y389756D01*
X109378Y389586D01*
Y384414D01*
X108878Y384244D01*
X108603Y384603D01*
X107841Y385188D01*
X106953Y385556D01*
X106000Y385681D01*
X105047Y385556D01*
X104159Y385188D01*
X103397Y384603D01*
X102812Y383840D01*
X102444Y382953D01*
X102319Y382000D01*
X102444Y381047D01*
X102812Y380159D01*
X103397Y379397D01*
X104159Y378812D01*
X105047Y378444D01*
X106000Y378319D01*
X106953Y378444D01*
X107841Y378812D01*
X108603Y379397D01*
X109188Y380159D01*
X109486Y380878D01*
X110400D01*
X110400Y380878D01*
X110829Y380964D01*
X111193Y381207D01*
X111293Y381307D01*
X111293Y381307D01*
X111536Y381671D01*
X111622Y382100D01*
X111622Y382100D01*
Y401125D01*
X112122Y401332D01*
X113285Y400169D01*
D02*
G37*
G36*
X180977Y406882D02*
Y401715D01*
X178306Y399044D01*
X178063Y398680D01*
X177978Y398251D01*
X177978Y398251D01*
Y384751D01*
X177978Y384750D01*
X178063Y384321D01*
X178306Y383957D01*
X179840Y382423D01*
X179942Y381913D01*
X180070Y381721D01*
X179803Y381222D01*
X174215D01*
X172722Y382715D01*
Y383994D01*
X173222Y384146D01*
X173231Y384131D01*
X173813Y383742D01*
X174500Y383606D01*
X175187Y383742D01*
X175769Y384131D01*
X176158Y384713D01*
X176294Y385400D01*
X176177Y385988D01*
X176445Y386488D01*
X176772D01*
Y391425D01*
X172722D01*
Y393575D01*
X176772D01*
Y398469D01*
X179901Y401599D01*
X180177Y402012D01*
X180274Y402500D01*
Y406911D01*
X180477Y407099D01*
X180977Y406882D01*
D02*
G37*
G36*
X186052Y394203D02*
X186739Y394067D01*
X187425Y394203D01*
X187527Y394271D01*
X188026Y394004D01*
Y387316D01*
X188026Y387316D01*
X188112Y386887D01*
X188355Y386523D01*
X188999Y385879D01*
X188999Y385879D01*
X189363Y385635D01*
X189792Y385550D01*
X189793Y385550D01*
X192735D01*
X193089Y385196D01*
X192944Y384717D01*
X192813Y384691D01*
X192231Y384302D01*
X191842Y383720D01*
X191823Y383622D01*
X189900D01*
X189471Y383536D01*
X189107Y383293D01*
X189107Y383293D01*
X187035Y381222D01*
X183396D01*
X183129Y381721D01*
X183257Y381913D01*
X183394Y382600D01*
X183308Y383034D01*
X183693Y383467D01*
X184000Y383406D01*
X184687Y383542D01*
X185269Y383931D01*
X185658Y384513D01*
X185794Y385200D01*
X185658Y385887D01*
X185269Y386469D01*
X185193Y386520D01*
Y391243D01*
X180650D01*
Y391243D01*
X180221Y391416D01*
Y393220D01*
X180650Y393393D01*
Y393393D01*
X185193D01*
Y394183D01*
X185693Y394443D01*
X186052Y394203D01*
D02*
G37*
G36*
X157026Y365603D02*
Y357487D01*
X155540Y356001D01*
X155503Y355947D01*
X155003Y356098D01*
Y356918D01*
X155003Y356918D01*
X154918Y357347D01*
X154675Y357711D01*
X151304Y361082D01*
X151300Y361103D01*
X151473Y361620D01*
X151660Y361646D01*
X152113Y361342D01*
X152800Y361206D01*
X153487Y361342D01*
X154069Y361731D01*
X154458Y362313D01*
X154594Y363000D01*
X154458Y363687D01*
X154069Y364269D01*
X153946Y364351D01*
X153968Y364577D01*
X154093Y364854D01*
X154983Y364972D01*
X155907Y365354D01*
X156526Y365829D01*
X157026Y365603D01*
D02*
G37*
G36*
X177032Y374532D02*
X178182D01*
Y373917D01*
X178057Y373793D01*
X177814Y373429D01*
X177729Y373000D01*
X177336Y372756D01*
X175791D01*
Y366244D01*
X181591D01*
Y365744D01*
X181590Y365744D01*
X181131Y365683D01*
X181088Y365679D01*
X179619Y365233D01*
X178265Y364510D01*
X177079Y363536D01*
X176105Y362350D01*
X175382Y360996D01*
X174936Y359527D01*
X174922Y359377D01*
X174422Y359402D01*
Y374835D01*
X175465Y375879D01*
X177032D01*
Y374532D01*
D02*
G37*
G36*
X172957Y379307D02*
X173321Y379064D01*
X173750Y378978D01*
X173750Y378978D01*
X177032D01*
Y378121D01*
X175000D01*
X174571Y378036D01*
X174207Y377793D01*
X174207Y377793D01*
X172507Y376093D01*
X172264Y375729D01*
X172178Y375300D01*
X172178Y375300D01*
Y345263D01*
X171293Y344377D01*
X170869Y344660D01*
X171110Y345243D01*
X171150Y345543D01*
X167925D01*
Y346043D01*
X167425D01*
Y349097D01*
X166928Y349031D01*
X166182Y348722D01*
X165815Y348441D01*
X164646D01*
Y344783D01*
X163646D01*
Y348441D01*
X162358D01*
Y347941D01*
X160275D01*
Y352372D01*
X164901Y356999D01*
X165178Y357412D01*
X165275Y357900D01*
Y365699D01*
X165497Y365791D01*
X166185Y366319D01*
X166714Y367007D01*
X166804Y367226D01*
X168200D01*
X168688Y367322D01*
X169101Y367599D01*
X170601Y369099D01*
X170878Y369512D01*
X170975Y370000D01*
Y380636D01*
X171436Y380827D01*
X172957Y379307D01*
D02*
G37*
G36*
X177098Y337140D02*
X177762Y336476D01*
X178122Y335608D01*
Y335138D01*
Y332382D01*
Y331912D01*
X177762Y331044D01*
X177098Y330379D01*
X176230Y330020D01*
X169264D01*
Y337500D01*
X176230D01*
X177098Y337140D01*
D02*
G37*
G36*
X148791Y330020D02*
X141825D01*
X140957Y330379D01*
X140293Y331044D01*
X139933Y331912D01*
Y332382D01*
Y335138D01*
Y335608D01*
X140293Y336476D01*
X140957Y337140D01*
X141825Y337500D01*
X148791D01*
Y330020D01*
D02*
G37*
G36*
X138166Y339207D02*
X138166Y339207D01*
X138530Y338964D01*
X138959Y338878D01*
X138959Y338878D01*
X149663D01*
X149957Y338500D01*
Y334260D01*
X154500D01*
Y333260D01*
X149957D01*
Y329985D01*
X149798Y329937D01*
X149332Y330319D01*
Y337500D01*
X149174Y337883D01*
X148791Y338041D01*
X141825D01*
X141726Y338000D01*
X141618D01*
X140750Y337640D01*
X140674Y337564D01*
X140575Y337523D01*
X139910Y336859D01*
X139869Y336759D01*
X139793Y336683D01*
X139433Y335815D01*
Y335707D01*
X139392Y335608D01*
Y331912D01*
X139433Y331813D01*
Y331705D01*
X139793Y330837D01*
X139869Y330761D01*
X139910Y330661D01*
X140551Y330019D01*
X140544Y329903D01*
X140429Y329549D01*
X140411Y329520D01*
X122198D01*
X122062Y330001D01*
X122887Y330506D01*
X124656Y332017D01*
X126167Y333786D01*
X127382Y335770D01*
X128273Y337919D01*
X128816Y340181D01*
X128959Y342000D01*
X114173D01*
Y343000D01*
X128959D01*
X128816Y344819D01*
X128273Y347081D01*
X127382Y349231D01*
X127291Y349379D01*
X127684Y349689D01*
X138166Y339207D01*
D02*
G37*
%LPC*%
G36*
X185000Y496219D02*
Y492500D01*
X188719D01*
X188639Y493109D01*
X188211Y494142D01*
X187530Y495030D01*
X186642Y495711D01*
X185609Y496139D01*
X185000Y496219D01*
D02*
G37*
G36*
X188719Y491500D02*
X185000D01*
Y487781D01*
X185609Y487861D01*
X186642Y488289D01*
X187530Y488970D01*
X188211Y489858D01*
X188639Y490891D01*
X188719Y491500D01*
D02*
G37*
G36*
X216000Y457681D02*
X215047Y457556D01*
X214159Y457188D01*
X213397Y456603D01*
X212812Y455840D01*
X212444Y454953D01*
X212319Y454000D01*
X212444Y453047D01*
X212812Y452160D01*
X213397Y451397D01*
X214159Y450812D01*
X215047Y450444D01*
X216000Y450319D01*
X216953Y450444D01*
X217841Y450812D01*
X218603Y451397D01*
X219188Y452160D01*
X219556Y453047D01*
X219681Y454000D01*
X219556Y454953D01*
X219188Y455840D01*
X218603Y456603D01*
X217841Y457188D01*
X216953Y457556D01*
X216000Y457681D01*
D02*
G37*
G36*
X216500Y438120D02*
Y434500D01*
X220120D01*
X220043Y435083D01*
X219625Y436093D01*
X218959Y436960D01*
X218093Y437625D01*
X217083Y438043D01*
X216500Y438120D01*
D02*
G37*
G36*
X215500Y438120D02*
X214917Y438043D01*
X213907Y437625D01*
X213040Y436960D01*
X212375Y436093D01*
X211957Y435083D01*
X211880Y434500D01*
X215500D01*
Y438120D01*
D02*
G37*
G36*
X206000Y433411D02*
Y431706D01*
X207705D01*
X207629Y432088D01*
X207129Y432836D01*
X206382Y433335D01*
X206000Y433411D01*
D02*
G37*
G36*
X205000D02*
X204618Y433335D01*
X203871Y432836D01*
X203371Y432088D01*
X203295Y431706D01*
X205000D01*
Y433411D01*
D02*
G37*
G36*
X220120Y433500D02*
X216500D01*
Y429880D01*
X217083Y429957D01*
X218093Y430375D01*
X218959Y431040D01*
X219625Y431907D01*
X220043Y432917D01*
X220120Y433500D01*
D02*
G37*
G36*
X215500D02*
X211880D01*
X211957Y432917D01*
X212375Y431907D01*
X213040Y431040D01*
X213907Y430375D01*
X214917Y429957D01*
X215500Y429880D01*
Y433500D01*
D02*
G37*
G36*
X207705Y430706D02*
X206000D01*
Y429002D01*
X206382Y429078D01*
X207129Y429577D01*
X207629Y430325D01*
X207705Y430706D01*
D02*
G37*
G36*
X205000D02*
X203295D01*
X203371Y430325D01*
X203871Y429577D01*
X204618Y429078D01*
X205000Y429002D01*
Y430706D01*
D02*
G37*
G36*
X216000Y415681D02*
X215047Y415556D01*
X214159Y415188D01*
X213397Y414603D01*
X212812Y413840D01*
X212444Y412953D01*
X212319Y412000D01*
X212444Y411047D01*
X212812Y410159D01*
X213397Y409397D01*
X214159Y408812D01*
X215047Y408444D01*
X216000Y408319D01*
X216953Y408444D01*
X217841Y408812D01*
X218603Y409397D01*
X219188Y410159D01*
X219556Y411047D01*
X219681Y412000D01*
X219556Y412953D01*
X219188Y413840D01*
X218603Y414603D01*
X217841Y415188D01*
X216953Y415556D01*
X216000Y415681D01*
D02*
G37*
G36*
Y405681D02*
X215047Y405556D01*
X214159Y405188D01*
X213397Y404603D01*
X212812Y403840D01*
X212444Y402953D01*
X212319Y402000D01*
X212444Y401047D01*
X212812Y400160D01*
X213397Y399397D01*
X214159Y398812D01*
X215047Y398444D01*
X216000Y398319D01*
X216953Y398444D01*
X217841Y398812D01*
X218603Y399397D01*
X219188Y400160D01*
X219556Y401047D01*
X219681Y402000D01*
X219556Y402953D01*
X219188Y403840D01*
X218603Y404603D01*
X217841Y405188D01*
X216953Y405556D01*
X216000Y405681D01*
D02*
G37*
G36*
Y385681D02*
X215047Y385556D01*
X214159Y385188D01*
X213397Y384603D01*
X212812Y383840D01*
X212444Y382953D01*
X212319Y382000D01*
X212444Y381047D01*
X212812Y380159D01*
X213397Y379397D01*
X214159Y378812D01*
X215047Y378444D01*
X216000Y378319D01*
X216953Y378444D01*
X217841Y378812D01*
X218603Y379397D01*
X219188Y380159D01*
X219556Y381047D01*
X219681Y382000D01*
X219556Y382953D01*
X219188Y383840D01*
X218603Y384603D01*
X217841Y385188D01*
X216953Y385556D01*
X216000Y385681D01*
D02*
G37*
G36*
X187390Y376500D02*
X185118D01*
Y374031D01*
X187390D01*
Y376500D01*
D02*
G37*
G36*
X188709Y373256D02*
X185650D01*
Y370000D01*
X188709D01*
Y373256D01*
D02*
G37*
G36*
X205224Y357286D02*
Y343000D01*
X219510D01*
X219367Y344819D01*
X218824Y347081D01*
X217934Y349231D01*
X216718Y351214D01*
X215207Y352983D01*
X213439Y354494D01*
X211455Y355709D01*
X209306Y356600D01*
X207044Y357143D01*
X205224Y357286D01*
D02*
G37*
G36*
X204224D02*
X202405Y357143D01*
X200143Y356600D01*
X197994Y355709D01*
X196010Y354494D01*
X194241Y352983D01*
X192730Y351214D01*
X191515Y349231D01*
X190625Y347081D01*
X190082Y344819D01*
X189938Y343000D01*
X204224D01*
Y357286D01*
D02*
G37*
G36*
X106000Y497681D02*
X105047Y497556D01*
X104159Y497188D01*
X103397Y496603D01*
X102812Y495841D01*
X102444Y494953D01*
X102319Y494000D01*
X102444Y493047D01*
X102812Y492160D01*
X103397Y491397D01*
X104159Y490812D01*
X105047Y490444D01*
X106000Y490319D01*
X106953Y490444D01*
X107841Y490812D01*
X108603Y491397D01*
X109188Y492160D01*
X109556Y493047D01*
X109681Y494000D01*
X109556Y494953D01*
X109188Y495841D01*
X108603Y496603D01*
X107841Y497188D01*
X106953Y497556D01*
X106000Y497681D01*
D02*
G37*
G36*
Y487681D02*
X105047Y487556D01*
X104159Y487188D01*
X103397Y486603D01*
X102812Y485841D01*
X102444Y484953D01*
X102319Y484000D01*
X102444Y483047D01*
X102812Y482160D01*
X103397Y481397D01*
X104159Y480812D01*
X105047Y480444D01*
X106000Y480319D01*
X106953Y480444D01*
X107841Y480812D01*
X108603Y481397D01*
X109188Y482160D01*
X109556Y483047D01*
X109681Y484000D01*
X109556Y484953D01*
X109188Y485841D01*
X108603Y486603D01*
X107841Y487188D01*
X106953Y487556D01*
X106000Y487681D01*
D02*
G37*
G36*
Y477681D02*
X105047Y477556D01*
X104159Y477188D01*
X103397Y476603D01*
X102812Y475841D01*
X102444Y474953D01*
X102319Y474000D01*
X102444Y473047D01*
X102812Y472159D01*
X103397Y471397D01*
X104159Y470812D01*
X105047Y470444D01*
X106000Y470319D01*
X106953Y470444D01*
X107841Y470812D01*
X108603Y471397D01*
X109188Y472159D01*
X109556Y473047D01*
X109681Y474000D01*
X109556Y474953D01*
X109188Y475841D01*
X108603Y476603D01*
X107841Y477188D01*
X106953Y477556D01*
X106000Y477681D01*
D02*
G37*
G36*
X147286Y483752D02*
X133000D01*
Y469466D01*
X134819Y469609D01*
X137081Y470152D01*
X139231Y471043D01*
X141214Y472258D01*
X142983Y473769D01*
X144494Y475538D01*
X145709Y477522D01*
X146600Y479671D01*
X147143Y481933D01*
X147286Y483752D01*
D02*
G37*
G36*
X132000D02*
X117714D01*
X117857Y481933D01*
X118400Y479671D01*
X119291Y477522D01*
X120506Y475538D01*
X122017Y473769D01*
X123786Y472258D01*
X125769Y471043D01*
X127919Y470152D01*
X130181Y469609D01*
X132000Y469466D01*
Y483752D01*
D02*
G37*
G36*
X175643Y474705D02*
X175262Y474629D01*
X174514Y474129D01*
X174015Y473382D01*
X173939Y473000D01*
X175643D01*
Y474705D01*
D02*
G37*
G36*
Y472000D02*
X173939D01*
X174015Y471618D01*
X174514Y470871D01*
X175262Y470371D01*
X175643Y470295D01*
Y472000D01*
D02*
G37*
G36*
X167007Y471758D02*
X165302D01*
Y470053D01*
X165684Y470129D01*
X166431Y470629D01*
X166931Y471376D01*
X167007Y471758D01*
D02*
G37*
G36*
X164302D02*
X162598D01*
X162673Y471376D01*
X163173Y470629D01*
X163920Y470129D01*
X164302Y470053D01*
Y471758D01*
D02*
G37*
G36*
X118047Y461969D02*
X115776D01*
Y459500D01*
X118047D01*
Y461969D01*
D02*
G37*
G36*
X139731Y460577D02*
Y458873D01*
X141435D01*
X141359Y459254D01*
X140860Y460002D01*
X140112Y460501D01*
X139731Y460577D01*
D02*
G37*
G36*
X138731D02*
X138349Y460501D01*
X137601Y460002D01*
X137102Y459254D01*
X137026Y458873D01*
X138731D01*
Y460577D01*
D02*
G37*
G36*
X141435Y457873D02*
X139731D01*
Y456168D01*
X140112Y456244D01*
X140860Y456743D01*
X141359Y457491D01*
X141435Y457873D01*
D02*
G37*
G36*
X138731D02*
X137026D01*
X137102Y457491D01*
X137601Y456743D01*
X138349Y456244D01*
X138731Y456168D01*
Y457873D01*
D02*
G37*
G36*
X118047Y458500D02*
X115776D01*
Y456032D01*
X118047D01*
Y458500D01*
D02*
G37*
G36*
X126528Y438130D02*
X123272D01*
Y434480D01*
X126528D01*
Y438130D01*
D02*
G37*
G36*
X120705Y424425D02*
X116295D01*
X116371Y424044D01*
X116621Y423669D01*
X116354Y423169D01*
X114216D01*
Y419520D01*
X117972D01*
X121728D01*
Y423169D01*
X120646D01*
X120379Y423669D01*
X120629Y424044D01*
X120705Y424425D01*
D02*
G37*
G36*
X141000Y417895D02*
Y416190D01*
X142705D01*
X142629Y416572D01*
X142129Y417319D01*
X141382Y417819D01*
X141000Y417895D01*
D02*
G37*
G36*
X140000D02*
X139618Y417819D01*
X138871Y417319D01*
X138371Y416572D01*
X138295Y416190D01*
X140000D01*
Y417895D01*
D02*
G37*
G36*
X121728Y418520D02*
X118472D01*
Y414870D01*
X121728D01*
Y418520D01*
D02*
G37*
G36*
X117472D02*
X114216D01*
Y414870D01*
X117472D01*
Y418520D01*
D02*
G37*
G36*
X142705Y415190D02*
X141000D01*
Y413485D01*
X141382Y413561D01*
X142129Y414061D01*
X142629Y414808D01*
X142705Y415190D01*
D02*
G37*
G36*
X140000D02*
X138295D01*
X138371Y414808D01*
X138871Y414061D01*
X139618Y413561D01*
X140000Y413485D01*
Y415190D01*
D02*
G37*
G36*
X141000Y411602D02*
Y409897D01*
X142705D01*
X142629Y410279D01*
X142129Y411026D01*
X141382Y411526D01*
X141000Y411602D01*
D02*
G37*
G36*
X140000D02*
X139618Y411526D01*
X138871Y411026D01*
X138371Y410279D01*
X138295Y409897D01*
X140000D01*
Y411602D01*
D02*
G37*
G36*
X142705Y408897D02*
X141000D01*
Y407192D01*
X141382Y407268D01*
X142129Y407768D01*
X142629Y408515D01*
X142705Y408897D01*
D02*
G37*
G36*
X140000D02*
X138295D01*
X138371Y408515D01*
X138871Y407768D01*
X139618Y407268D01*
X140000Y407192D01*
Y408897D01*
D02*
G37*
G36*
X167156Y408205D02*
Y406500D01*
X168860D01*
X168784Y406882D01*
X168285Y407629D01*
X167537Y408129D01*
X167156Y408205D01*
D02*
G37*
G36*
X168860Y405500D02*
X167156D01*
Y403795D01*
X167537Y403871D01*
X168285Y404371D01*
X168784Y405118D01*
X168860Y405500D01*
D02*
G37*
G36*
X163173Y386045D02*
Y384341D01*
X164878D01*
X164802Y384722D01*
X164303Y385470D01*
X163555Y385969D01*
X163173Y386045D01*
D02*
G37*
G36*
X162173D02*
X161792Y385969D01*
X161044Y385470D01*
X160545Y384722D01*
X160469Y384341D01*
X162173D01*
Y386045D01*
D02*
G37*
G36*
X164878Y383341D02*
X163173D01*
Y381636D01*
X163555Y381712D01*
X164303Y382211D01*
X164802Y382959D01*
X164878Y383341D01*
D02*
G37*
G36*
X162173D02*
X160469D01*
X160545Y382959D01*
X161044Y382211D01*
X161792Y381712D01*
X162173Y381636D01*
Y383341D01*
D02*
G37*
G36*
X143012Y381490D02*
X137000D01*
Y376265D01*
X143012D01*
Y381490D01*
D02*
G37*
G36*
X136000D02*
X129988D01*
Y376265D01*
X136000D01*
Y381490D01*
D02*
G37*
G36*
X143012Y375265D02*
X137000D01*
Y370041D01*
X143012D01*
Y375265D01*
D02*
G37*
G36*
X136000D02*
X129988D01*
Y370041D01*
X136000D01*
Y375265D01*
D02*
G37*
G36*
X142170Y369205D02*
X141788Y369129D01*
X141138Y368694D01*
X140487Y369129D01*
X140106Y369205D01*
Y367000D01*
X139606D01*
Y366500D01*
X137401D01*
X137477Y366118D01*
X137595Y365942D01*
X137278Y365515D01*
X136741Y365679D01*
X135713Y365780D01*
Y358500D01*
X142993D01*
X142892Y359527D01*
X142446Y360996D01*
X141723Y362350D01*
X140749Y363536D01*
X139889Y364242D01*
X140023Y364779D01*
X140487Y364871D01*
X141138Y365306D01*
X141788Y364871D01*
X142170Y364795D01*
Y367000D01*
Y369205D01*
D02*
G37*
G36*
X145500D02*
X145118Y369129D01*
X144371Y368629D01*
X144299D01*
X143552Y369129D01*
X143170Y369205D01*
Y367000D01*
Y364795D01*
X143552Y364871D01*
X144299Y365371D01*
X144371D01*
X145118Y364871D01*
X145500Y364795D01*
Y367000D01*
Y369205D01*
D02*
G37*
G36*
X139106D02*
X138724Y369129D01*
X137976Y368629D01*
X137477Y367882D01*
X137401Y367500D01*
X139106D01*
Y369205D01*
D02*
G37*
G36*
X134713Y365780D02*
X133686Y365679D01*
X132217Y365233D01*
X130864Y364510D01*
X129677Y363536D01*
X128704Y362350D01*
X127980Y360996D01*
X127535Y359527D01*
X127434Y358500D01*
X134713D01*
Y365780D01*
D02*
G37*
G36*
X142993Y357500D02*
X135713D01*
Y350220D01*
X136741Y350321D01*
X138209Y350767D01*
X139563Y351490D01*
X140749Y352464D01*
X141723Y353650D01*
X142446Y355004D01*
X142892Y356473D01*
X142993Y357500D01*
D02*
G37*
G36*
X134713D02*
X127434D01*
X127535Y356473D01*
X127980Y355004D01*
X128704Y353650D01*
X129677Y352464D01*
X130864Y351490D01*
X132217Y350767D01*
X133686Y350321D01*
X134713Y350220D01*
Y357500D01*
D02*
G37*
G36*
X149630Y349097D02*
X149132Y349031D01*
X148386Y348722D01*
X147746Y348231D01*
X147254Y347590D01*
X146945Y346844D01*
X146906Y346543D01*
X149630D01*
Y349097D01*
D02*
G37*
G36*
Y345543D02*
X146906D01*
X146945Y345243D01*
X147254Y344496D01*
X147746Y343856D01*
X148386Y343364D01*
X149132Y343055D01*
X149630Y342990D01*
Y345543D01*
D02*
G37*
G36*
X168425Y349097D02*
Y346543D01*
X171150D01*
X171110Y346844D01*
X170801Y347590D01*
X170309Y348231D01*
X169669Y348722D01*
X168923Y349031D01*
X168425Y349097D01*
D02*
G37*
%LPD*%
D18*
X197000Y389445D02*
D03*
Y407555D02*
D03*
D19*
X163555Y333760D02*
D03*
X154500D02*
D03*
D20*
X153909Y344783D02*
D03*
X164146D02*
D03*
X156468D02*
D03*
X159028D02*
D03*
X161586D02*
D03*
D21*
X184618Y377000D02*
D03*
X179303D02*
D03*
X118547Y459000D02*
D03*
X123862D02*
D03*
X174500Y396043D02*
D03*
Y388957D02*
D03*
X182921Y388775D02*
D03*
Y395861D02*
D03*
D22*
X185150Y369500D02*
D03*
X178850D02*
D03*
D23*
X185248Y462941D02*
D03*
X182098D02*
D03*
X178949D02*
D03*
X175799D02*
D03*
X172650D02*
D03*
X169500D02*
D03*
X166350D02*
D03*
X163201D02*
D03*
X160051D02*
D03*
X156902D02*
D03*
X153752D02*
D03*
Y418059D02*
D03*
X156902D02*
D03*
X160051D02*
D03*
X163201D02*
D03*
X166350D02*
D03*
X169500D02*
D03*
X172650D02*
D03*
X175799D02*
D03*
X178949D02*
D03*
X182098D02*
D03*
X185248D02*
D03*
D24*
X147059Y456248D02*
D03*
Y453098D02*
D03*
Y449949D02*
D03*
Y446799D02*
D03*
Y443650D02*
D03*
Y440500D02*
D03*
Y437350D02*
D03*
Y434201D02*
D03*
Y431051D02*
D03*
Y427902D02*
D03*
Y424752D02*
D03*
X191941D02*
D03*
Y427902D02*
D03*
Y431051D02*
D03*
Y434201D02*
D03*
Y437350D02*
D03*
Y440500D02*
D03*
Y443650D02*
D03*
Y446799D02*
D03*
Y449949D02*
D03*
Y453098D02*
D03*
Y456248D02*
D03*
D25*
X125000Y452503D02*
D03*
X117913D02*
D03*
D26*
X117141Y444000D02*
D03*
X125920D02*
D03*
D27*
X136500Y400962D02*
D03*
Y375765D02*
D03*
D28*
X127028Y419020D02*
D03*
Y433980D02*
D03*
X117972D02*
D03*
Y419020D02*
D03*
D29*
X150130Y346043D02*
D03*
X167925D02*
D03*
D30*
X142590Y333760D02*
D03*
X175464D02*
D03*
D31*
X216000Y412000D02*
D03*
Y392000D02*
D03*
Y372000D02*
D03*
Y382000D02*
D03*
Y402000D02*
D03*
Y494000D02*
D03*
Y474000D02*
D03*
Y454000D02*
D03*
Y434000D02*
D03*
Y444000D02*
D03*
Y464000D02*
D03*
Y484000D02*
D03*
X106000Y412000D02*
D03*
Y392000D02*
D03*
Y372000D02*
D03*
Y382000D02*
D03*
Y402000D02*
D03*
Y494000D02*
D03*
Y474000D02*
D03*
Y454000D02*
D03*
Y434000D02*
D03*
Y444000D02*
D03*
Y464000D02*
D03*
Y484000D02*
D03*
D32*
X216000Y362000D02*
D03*
Y424000D02*
D03*
X106000Y362000D02*
D03*
Y424000D02*
D03*
D33*
X174500Y492000D02*
D03*
Y482000D02*
D03*
X164500Y492000D02*
D03*
X184500Y482000D02*
D03*
Y492000D02*
D03*
D34*
X164500Y482000D02*
D03*
D35*
X114173Y342500D02*
D03*
X204724D02*
D03*
X132500Y484252D02*
D03*
D36*
X182615Y358000D02*
D03*
X135213D02*
D03*
D37*
X153993Y376543D02*
D03*
X163835D02*
D03*
Y368669D02*
D03*
X153993D02*
D03*
D38*
X150890Y449949D02*
Y450841D01*
X114890Y443600D02*
X117141D01*
X138959Y340000D02*
X168502D01*
X121223Y357736D02*
X138959Y340000D01*
X101800Y357736D02*
X121223D01*
X168502Y340000D02*
X173300Y344798D01*
X166498Y463089D02*
Y468148D01*
X166350Y462941D02*
X166498Y463089D01*
X147100Y456248D02*
Y461600D01*
X110400Y382000D02*
X110500Y382100D01*
Y461700D01*
X202200Y445000D02*
Y472500D01*
X200100Y442900D02*
X202200Y445000D01*
Y472500D02*
X203700Y474000D01*
X149562Y363000D02*
Y369805D01*
Y361238D02*
Y363000D01*
X200500Y378205D02*
Y385945D01*
X197000Y389445D02*
X200500Y385945D01*
Y363500D02*
Y365500D01*
X184829Y347829D02*
X200500Y363500D01*
X178500Y347829D02*
X184829D01*
X149562Y363000D02*
X152800D01*
X149562Y369805D02*
X154157Y374400D01*
X149562Y361238D02*
X153882Y356918D01*
X185248Y418059D02*
X188941D01*
X189148Y417852D01*
X189792Y386672D02*
X193199D01*
X196500Y383371D01*
Y373000D02*
Y383371D01*
X189148Y387316D02*
Y417852D01*
Y387316D02*
X189792Y386672D01*
X196500Y373000D02*
X207500Y362000D01*
X207731Y373750D02*
Y409209D01*
X206281Y410659D02*
X207731Y409209D01*
X206281Y410659D02*
Y418481D01*
X150600Y414400D02*
Y424752D01*
X192966Y382500D02*
X193500Y383034D01*
X189900Y382500D02*
X192966D01*
X195500Y443650D02*
Y444600D01*
X133540Y424900D02*
Y439040D01*
X125000Y452503D02*
Y459000D01*
X153752Y459800D02*
X154000D01*
X177500Y468148D02*
X181951D01*
X166498D02*
X177500D01*
X175113Y427300D02*
X175294Y427119D01*
X174913Y427500D02*
X175113Y427300D01*
X156902Y426250D02*
Y431206D01*
Y418059D02*
Y426250D01*
X114078Y400962D02*
X116250D01*
X133540Y421250D02*
Y424900D01*
X179303Y373453D02*
Y377000D01*
X178850Y373000D02*
X179303Y373453D01*
X178850Y369500D02*
Y373000D01*
X156902Y408302D02*
Y418059D01*
X149562Y400962D02*
X156902Y408302D01*
X136500Y400962D02*
X149562D01*
X117141Y443600D02*
Y444000D01*
X112540Y441250D02*
X114890Y443600D01*
X112540Y402500D02*
Y441250D01*
Y402500D02*
X114078Y400962D01*
X117913Y448572D02*
Y452503D01*
X117141Y447800D02*
X117913Y448572D01*
X117141Y444000D02*
Y447800D01*
X116250Y400962D02*
X136500D01*
X114100Y398812D02*
X116250Y400962D01*
X114100Y377900D02*
Y398812D01*
X112500Y376300D02*
X114100Y377900D01*
X103000Y376300D02*
X112500D01*
X101700Y375000D02*
X103000Y376300D01*
X101700Y357836D02*
Y375000D01*
Y357836D02*
X101800Y357736D01*
X173300Y344798D02*
Y375300D01*
X175000Y377000D01*
X179303D01*
X166350Y456250D02*
Y462941D01*
Y456250D02*
X175113Y447487D01*
Y427300D02*
Y447487D01*
X175294Y427119D02*
X181250D01*
X183617Y424752D02*
X191941D01*
X156902Y431206D02*
X156914Y431219D01*
Y449037D01*
X155000Y450951D02*
X156914Y449037D01*
X151000Y450951D02*
X155000D01*
X150890Y450841D02*
X151000Y450951D01*
X147059Y449949D02*
X150890D01*
X164500Y488098D02*
Y492000D01*
Y488098D02*
X166250Y486348D01*
X177500D01*
X178848Y485000D01*
Y469496D02*
Y485000D01*
X177500Y468148D02*
X178848Y469496D01*
X181250Y427119D02*
X183617Y424752D01*
X158152Y427500D02*
X174913D01*
X156902Y426250D02*
X158152Y427500D01*
X184510Y456248D02*
X191941D01*
X182098Y458660D02*
X184510Y456248D01*
X182098Y458660D02*
Y462941D01*
Y468000D01*
X181951Y468148D02*
X182098Y468000D01*
X191941Y449949D02*
X197000D01*
X197100Y450049D01*
Y456148D01*
X197000Y456248D02*
X197100Y456148D01*
X191941Y456248D02*
X197000D01*
X191941Y431051D02*
X199051D01*
X200500Y432500D01*
Y436550D01*
X207950Y444000D01*
X213681D01*
X186500Y434201D02*
X191941D01*
X183400Y437301D02*
X186500Y434201D01*
X183400Y437301D02*
Y454000D01*
X191941Y437350D02*
X197500D01*
X203900Y443750D01*
Y462500D01*
X205400Y464000D01*
X213681D01*
X203700Y474000D02*
X213681D01*
X198750Y442900D02*
X200100D01*
X196350Y440500D02*
X198750Y442900D01*
X191941Y440500D02*
X196350D01*
X191941Y443650D02*
X195500D01*
Y444600D02*
X198850D01*
X200500Y446250D01*
Y482500D01*
X202000Y484000D01*
X213681D01*
X191941Y446799D02*
X197500D01*
X198800Y448099D01*
Y492500D01*
X200300Y494000D01*
X213681D01*
X147059Y431051D02*
X151895D01*
X155214Y434371D01*
Y447036D01*
X153750Y448500D02*
X155214Y447036D01*
X135900Y429502D02*
Y437850D01*
Y429502D02*
X137500Y427902D01*
X147059D01*
Y434201D02*
X151500D01*
X152800Y435501D01*
Y436400D01*
X142950Y437350D02*
X147059D01*
X141400Y435800D02*
X142950Y437350D01*
X160051Y406300D02*
Y418059D01*
X101700Y398750D02*
X103450Y397000D01*
X101700Y398750D02*
Y453900D01*
X101800Y454000D01*
X106000D01*
X177699Y424300D02*
X178849D01*
X178949Y424200D01*
Y418059D02*
Y424200D01*
X166350Y418059D02*
Y425118D01*
X185248Y462941D02*
Y475902D01*
X169500Y412000D02*
Y418059D01*
X172650Y406210D02*
Y418059D01*
X175799Y405000D02*
Y418059D01*
X173829Y403030D02*
X175799Y405000D01*
X171250Y403030D02*
X173829D01*
X160220Y392000D02*
X171250Y403030D01*
X106000Y382000D02*
X110400D01*
X110500Y461700D02*
X112500Y463700D01*
X145000D01*
X147100Y461600D01*
X147059Y456248D02*
X147100D01*
X106000Y372000D02*
X125050D01*
X126800Y373750D01*
Y384150D01*
X130150Y387500D01*
X155150D01*
X156400Y388750D01*
Y401700D01*
X158450Y403750D01*
X161951D01*
X163201Y405000D01*
Y418059D01*
X182098Y401250D02*
Y418059D01*
X179100Y398251D02*
X182098Y401250D01*
X179100Y384750D02*
Y398251D01*
Y384750D02*
X181250Y382600D01*
X181600D01*
X169500Y457300D02*
Y462941D01*
X127028Y419020D02*
X131310D01*
X133540Y439040D02*
X135000Y440500D01*
X147059D01*
X132550Y425000D02*
X133440D01*
X133540Y424900D01*
X131310Y419020D02*
X133540Y421250D01*
X133750Y443650D02*
X147059D01*
X131840Y441740D02*
X133750Y443650D01*
X131840Y430000D02*
Y441740D01*
X130440Y428600D02*
X131840Y430000D01*
X118072Y428600D02*
X130440D01*
X117972Y433980D02*
X118072Y428600D01*
X114900Y429200D02*
X117872D01*
X117972Y429300D01*
Y433980D01*
X147059Y453098D02*
X152100D01*
X152200Y453198D01*
Y458200D01*
X151400Y459000D02*
X152200Y458200D01*
X151400Y459000D02*
Y496250D01*
X153198Y498048D01*
X177500D01*
X178900Y496648D01*
Y488148D02*
Y496648D01*
Y488148D02*
X180648Y486400D01*
Y482100D02*
Y486400D01*
Y482100D02*
X180748Y482000D01*
X184500D01*
X136296Y453098D02*
X147059D01*
X135700Y452503D02*
X136296Y453098D01*
X125000Y452503D02*
X135700D01*
X125000Y448620D02*
Y452503D01*
Y448620D02*
X125920Y447700D01*
Y444000D02*
Y447700D01*
X123862Y459000D02*
X125000D01*
X156902Y462941D02*
Y495000D01*
X158250Y496348D01*
X174400D01*
X174500Y496248D01*
Y492000D02*
Y496248D01*
X153752Y462941D02*
Y481752D01*
X154000Y482000D01*
X153752Y459800D02*
Y462941D01*
X154000Y452800D02*
Y459800D01*
Y452800D02*
X154100Y452700D01*
X160500D01*
X209431Y392100D02*
Y416750D01*
Y392100D02*
X209531Y392000D01*
X213681D01*
X163201Y452449D02*
X168240Y447410D01*
X163201Y452449D02*
Y462941D01*
X211100Y419700D02*
X211800Y419000D01*
X207500Y419700D02*
X211100D01*
X206281Y418481D02*
X207500Y419700D01*
X207731Y373750D02*
X209481Y372000D01*
X213681D01*
X160051Y462941D02*
Y472500D01*
X163801Y476250D01*
X173250D01*
X174500Y477500D01*
Y482000D01*
X187500Y380100D02*
X189900Y382500D01*
X173750Y380100D02*
X187500D01*
X171600Y382250D02*
X173750Y380100D01*
X171600Y382250D02*
Y399300D01*
X172100Y399800D01*
X147059Y424752D02*
X150600D01*
X207500Y362000D02*
X213681D01*
X153882Y347000D02*
Y356918D01*
X154157Y374400D02*
Y376374D01*
D39*
X159674D02*
X164000D01*
X174500Y385400D02*
Y388957D01*
X169600Y388900D02*
X169700Y388800D01*
X168450Y388900D02*
X169600D01*
X178949Y458701D02*
X179565Y458085D01*
Y457984D02*
Y458085D01*
Y457984D02*
X180250Y457299D01*
X177065Y455335D02*
Y457049D01*
Y455335D02*
X177599Y454800D01*
X178949Y458701D02*
Y462941D01*
X175799Y458315D02*
Y462941D01*
Y458315D02*
X177065Y457049D01*
X180250Y433300D02*
Y457299D01*
Y433300D02*
X185100Y428450D01*
X182921Y395861D02*
X186739D01*
X177599Y429500D02*
Y454800D01*
X179000Y402500D02*
Y408300D01*
X174900Y398400D02*
X179000Y402500D01*
X174500Y396043D02*
X174900Y398400D01*
X156441Y345500D02*
Y355100D01*
X158300Y356959D01*
Y375000D01*
X159674Y376374D01*
X182921Y386279D02*
Y388775D01*
Y386279D02*
X184000Y385200D01*
X169700Y370000D02*
Y388800D01*
X168200Y368500D02*
X169700Y370000D01*
X164000Y368500D02*
X168200D01*
X159000Y345500D02*
Y352900D01*
X164000Y357900D01*
Y368500D01*
D40*
X191941Y424752D02*
X200148D01*
X200900Y424000D01*
X201648D01*
X213681D01*
X197000Y419352D02*
X201648Y424000D01*
X197000Y407555D02*
Y419352D01*
X153657Y428200D02*
X153752Y428106D01*
Y418059D02*
Y428106D01*
X174815Y453000D02*
Y456117D01*
X172650Y458282D02*
X174815Y456117D01*
X172650Y458282D02*
Y462941D01*
D41*
X174500Y385400D02*
D03*
X200500Y378205D02*
D03*
Y365500D02*
D03*
X178500Y347829D02*
D03*
X152800Y363000D02*
D03*
X193500Y383034D02*
D03*
X162673Y383840D02*
D03*
X184618Y377000D02*
D03*
X118500Y424925D02*
D03*
X140500Y409397D02*
D03*
X139606Y367000D02*
D03*
X142670D02*
D03*
X146000D02*
D03*
X166656Y406000D02*
D03*
X153657Y428200D02*
D03*
X140500Y415690D02*
D03*
X118263Y458647D02*
D03*
X182000Y473000D02*
D03*
X139231Y458373D02*
D03*
X185935Y441156D02*
D03*
X205500Y431206D02*
D03*
X164802Y472258D02*
D03*
X174815Y453000D02*
D03*
X183400Y454000D02*
D03*
X153750Y448500D02*
D03*
X135900Y437850D02*
D03*
X152800Y436400D02*
D03*
X141400Y435800D02*
D03*
X160051Y406300D02*
D03*
X103450Y397000D02*
D03*
X177699Y424300D02*
D03*
X166350Y425118D02*
D03*
X185248Y475902D02*
D03*
X169500Y412000D02*
D03*
X172650Y406210D02*
D03*
X160220Y392000D02*
D03*
X181600Y382600D02*
D03*
X185100Y428450D02*
D03*
X186739Y395861D02*
D03*
X177599Y429500D02*
D03*
X179000Y408300D02*
D03*
X169500Y457300D02*
D03*
X132550Y425000D02*
D03*
X114900Y429200D02*
D03*
X154000Y482000D02*
D03*
X160500Y452700D02*
D03*
X209431Y416750D02*
D03*
X168240Y447410D02*
D03*
X211800Y419000D02*
D03*
X172100Y399800D02*
D03*
X150600Y414400D02*
D03*
X184000Y385200D02*
D03*
X168450Y388900D02*
D03*
D42*
X176143Y472500D02*
D03*
D43*
X106332Y349601D02*
D03*
X120669D02*
D03*
Y335264D02*
D03*
X106332D02*
D03*
X123638Y342432D02*
D03*
X103362D02*
D03*
X113500Y332294D02*
D03*
Y352570D02*
D03*
X204458Y352657D02*
D03*
Y332382D02*
D03*
X194320Y342520D02*
D03*
X214596D02*
D03*
X197289Y335351D02*
D03*
X211626D02*
D03*
Y349688D02*
D03*
X197289D02*
D03*
X132500Y495638D02*
D03*
Y475362D02*
D03*
X122362Y485500D02*
D03*
X142638D02*
D03*
X125332Y478332D02*
D03*
X139669D02*
D03*
Y492669D02*
D03*
X125332D02*
D03*
M02*
