G04*
G04 #@! TF.GenerationSoftware,Altium Limited,Altium Designer,18.1.11 (251)*
G04*
G04 Layer_Color=32896*
%FSLAX25Y25*%
%MOIN*%
G70*
G01*
G75*
%ADD12C,0.00787*%
%ADD13C,0.00591*%
%ADD14C,0.00500*%
%ADD16C,0.00600*%
%ADD17C,0.01000*%
%ADD45C,0.00050*%
D12*
X182831Y389244D02*
X182043D01*
X182831D01*
X221000Y357000D02*
Y417000D01*
X211000D02*
X221000D01*
X211000Y357000D02*
Y417000D01*
Y357000D02*
X221000D01*
Y419000D02*
Y499000D01*
X211000D02*
X221000D01*
X211000Y419000D02*
Y499000D01*
Y419000D02*
X221000D01*
X111000Y357000D02*
Y417000D01*
X101000D02*
X111000D01*
X101000Y357000D02*
Y417000D01*
Y357000D02*
X111000D01*
Y419000D02*
Y499000D01*
X101000D02*
X111000D01*
X101000Y419000D02*
Y499000D01*
Y419000D02*
X111000D01*
X181846Y391213D02*
Y392787D01*
X175154Y391213D02*
Y392787D01*
X135213Y382488D02*
X182615D01*
X135213Y317527D02*
X182615D01*
Y350008D01*
Y365992D02*
Y382488D01*
X135213Y365992D02*
Y382488D01*
Y317527D02*
Y350008D01*
D13*
X174000Y469957D02*
Y477043D01*
X167307Y475469D02*
Y477043D01*
X180693D01*
Y475469D02*
Y477043D01*
Y469957D02*
Y471532D01*
X167307Y469957D02*
X180693D01*
X167307D02*
Y471532D01*
X127575Y433169D02*
X128756D01*
Y422146D02*
Y433169D01*
X127575Y422146D02*
X128756D01*
X123244D02*
X124425D01*
X123244D02*
Y433169D01*
X124425D01*
X123244Y427657D02*
X128756D01*
X115744Y422071D02*
X116925D01*
X115744D02*
Y433094D01*
X116925D01*
X120075D02*
X121256D01*
Y422071D02*
Y433094D01*
X120075Y422071D02*
X121256D01*
X115744Y427583D02*
X121256D01*
D14*
X136702Y459500D02*
X139701D01*
Y457501D01*
Y455001D02*
Y456001D01*
X139202Y456501D01*
X138202D01*
X137702Y456001D01*
Y455001D01*
X138202Y454502D01*
X138702D01*
Y456501D01*
X139701Y453002D02*
Y452002D01*
X139202Y451503D01*
X138202D01*
X137702Y452002D01*
Y453002D01*
X138202Y453502D01*
X139202D01*
X139701Y453002D01*
Y450503D02*
X137702D01*
Y449003D01*
X138202Y448504D01*
X139701D01*
X137702Y447004D02*
Y446004D01*
X138202Y445505D01*
X139701D01*
Y447004D01*
X139202Y447504D01*
X138702Y447004D01*
Y445505D01*
X137702Y444505D02*
X139701D01*
X138702D01*
X138202Y444005D01*
X137702Y443505D01*
Y443005D01*
X136702Y439506D02*
X139701D01*
Y441006D01*
X139202Y441506D01*
X138202D01*
X137702Y441006D01*
Y439506D01*
X139701Y438007D02*
Y437007D01*
X139202Y436507D01*
X138202D01*
X137702Y437007D01*
Y438007D01*
X138202Y438507D01*
X139202D01*
X139701Y438007D01*
Y432509D02*
X136702D01*
X137702Y431509D01*
X136702Y430509D01*
X139701D01*
Y429510D02*
Y428510D01*
Y429010D01*
X137702D01*
Y429510D01*
X139701Y427010D02*
X137702D01*
Y425511D01*
X138202Y425011D01*
X139701D01*
Y424012D02*
Y423012D01*
Y423512D01*
X137702D01*
Y424012D01*
Y418513D02*
X139701Y417514D01*
X137702Y416514D01*
X139701Y415514D02*
Y414514D01*
Y415014D01*
X136702D01*
X137202Y415514D01*
X139701Y413015D02*
X139202D01*
Y412515D01*
X139701D01*
Y413015D01*
X137202Y410516D02*
X136702Y410016D01*
Y409016D01*
X137202Y408517D01*
X139202D01*
X139701Y409016D01*
Y410016D01*
X139202Y410516D01*
X137202D01*
X141501Y453502D02*
X144500D01*
Y452002D01*
X144000Y451503D01*
X143501D01*
X143001D01*
X142501Y452002D01*
Y453502D01*
Y450503D02*
X144000D01*
X144500Y450003D01*
Y448504D01*
X145000D01*
X145500Y449003D01*
Y449503D01*
X144500Y448504D02*
X142501D01*
X141501Y442506D02*
Y444505D01*
X144500D01*
Y442506D01*
X143001Y444505D02*
Y443505D01*
X142501Y441506D02*
X144500D01*
X143501D01*
X143001Y441006D01*
X142501Y440506D01*
Y440006D01*
X144500Y438507D02*
Y437507D01*
Y438007D01*
X142501D01*
Y438507D01*
Y434008D02*
Y435508D01*
X143001Y436008D01*
X144000D01*
X144500Y435508D01*
Y434008D01*
X142001Y428010D02*
X141501Y428510D01*
Y429510D01*
X142001Y430010D01*
X144000D01*
X144500Y429510D01*
Y428510D01*
X144000Y428010D01*
X143001D01*
Y429010D01*
X144500Y426511D02*
Y425511D01*
X144000Y425011D01*
X143001D01*
X142501Y425511D01*
Y426511D01*
X143001Y427010D01*
X144000D01*
X144500Y426511D01*
X142501Y424012D02*
X144500D01*
X143501D01*
X143001Y423512D01*
X142501Y423012D01*
Y422512D01*
X144500Y421012D02*
X141501D01*
X143501D02*
X142501Y419513D01*
X143501Y421012D02*
X144500Y419513D01*
Y417514D02*
Y416514D01*
X144000Y416014D01*
X143001D01*
X142501Y416514D01*
Y417514D01*
X143001Y418013D01*
X144000D01*
X144500Y417514D01*
X142501Y415014D02*
X144000D01*
X144500Y414514D01*
X144000Y414015D01*
X144500Y413515D01*
X144000Y413015D01*
X142501D01*
D16*
X150500Y420000D02*
X154000D01*
X150500Y443500D02*
X154000D01*
X166000Y431500D02*
Y432000D01*
X163000Y428500D02*
X163750Y429250D01*
X165250Y430750D02*
X166000Y431500D01*
X163750Y429250D02*
X165250Y430750D01*
X163000Y428500D02*
Y429500D01*
Y435000D01*
X166000Y432000D01*
X151500Y448500D02*
X159500D01*
X146500Y443500D02*
X151500Y448500D01*
X146500Y443500D02*
X151500Y438500D01*
X156000D01*
X158000Y436500D01*
Y427000D02*
Y436500D01*
X156000Y425000D02*
X158000Y427000D01*
X151500Y425000D02*
X156000D01*
X146500Y420000D02*
X151500Y425000D01*
X146500Y420000D02*
X151500Y415000D01*
X159500D01*
X169500D01*
X177500Y423000D01*
X169500Y448500D02*
X177500Y440500D01*
X159500Y448500D02*
X169500D01*
X149000Y443500D02*
X152000Y446500D01*
X155000D01*
Y440500D02*
Y446500D01*
X152000Y440500D02*
X155000D01*
X149000Y443500D02*
X152000Y440500D01*
X149000Y420000D02*
X152000Y423000D01*
X155000D01*
Y417000D02*
Y423000D01*
X152000Y417000D02*
X155000D01*
X149000Y420000D02*
X152000Y417000D01*
X169500Y443500D02*
X174500Y438500D01*
X169500Y420500D02*
X174500Y425500D01*
X169500Y420500D02*
Y443500D01*
X172500Y428500D02*
Y433500D01*
Y428500D02*
X179000Y435000D01*
Y431000D02*
Y435000D01*
Y431000D02*
X186000Y438000D01*
Y436000D02*
Y438000D01*
Y436000D02*
X192000Y442000D01*
X187000D02*
X192000D01*
X186000D02*
X187000D01*
X186000Y440500D02*
Y442000D01*
X181500Y436000D02*
X186000Y440500D01*
X181500Y437000D02*
Y442000D01*
Y436000D02*
Y437000D01*
X172500Y433500D02*
X178500Y439500D01*
X181000Y442000D01*
X181500D01*
X174500Y435500D02*
Y438500D01*
X177500D02*
Y440500D01*
Y423000D02*
Y433500D01*
X174500Y425500D02*
Y430500D01*
D17*
X161962Y426483D02*
X161208Y425853D01*
X160610Y425074D01*
X160196Y424183D01*
X159986Y423223D01*
X159991Y422240D01*
X160211Y421282D01*
X160634Y420396D01*
X161240Y419622D01*
X162000Y419000D01*
Y445000D02*
X161246Y444370D01*
X160648Y443590D01*
X160234Y442699D01*
X160025Y441740D01*
X160030Y440757D01*
X160249Y439799D01*
X160672Y438912D01*
X161278Y438139D01*
X162038Y437517D01*
X134290Y388944D02*
X135602D01*
X134946D01*
Y385664D01*
X135602Y385008D01*
X136258D01*
X136914Y385664D01*
X130354Y385008D02*
X132978D01*
X130354Y387632D01*
Y388288D01*
X131010Y388944D01*
X132322D01*
X132978Y388288D01*
X182200Y403536D02*
Y399600D01*
X180232D01*
X179576Y400256D01*
Y402880D01*
X180232Y403536D01*
X182200D01*
X178264Y399600D02*
X176952D01*
X177608D01*
Y403536D01*
X178264Y402880D01*
X119780Y415624D02*
X120436Y414968D01*
Y413656D01*
X119780Y413000D01*
X117156D01*
X116500Y413656D01*
Y414968D01*
X117156Y415624D01*
X116500Y418904D02*
X120436D01*
X118468Y416936D01*
Y419560D01*
X127705Y415624D02*
X128361Y414968D01*
Y413656D01*
X127705Y413000D01*
X125081D01*
X124425Y413656D01*
Y414968D01*
X125081Y415624D01*
X127705Y416936D02*
X128361Y417592D01*
Y418904D01*
X127705Y419560D01*
X127049D01*
X126393Y418904D01*
Y418248D01*
Y418904D01*
X125737Y419560D01*
X125081D01*
X124425Y418904D01*
Y417592D01*
X125081Y416936D01*
X162376Y474280D02*
X163032Y474936D01*
X164344D01*
X165000Y474280D01*
Y471656D01*
X164344Y471000D01*
X163032D01*
X162376Y471656D01*
X161064Y471000D02*
X159752D01*
X160408D01*
Y474936D01*
X161064Y474280D01*
D45*
X98Y233D02*
X173Y106D01*
X185Y421D02*
X98Y241D01*
X246Y460D02*
X185Y421D01*
X388Y534D02*
X246Y460D01*
X388Y534D02*
X530Y610D01*
Y610D02*
X639Y689D01*
Y689D02*
X742Y824D01*
Y824D02*
X785Y928D01*
X785D02*
X839Y1100D01*
X895Y1272D02*
X839Y1100D01*
X971Y1435D02*
X895Y1272D01*
X1008Y1502D02*
X971Y1435D01*
X1319Y1816D02*
X1008Y1502D01*
X1629Y1929D02*
X1319Y1816D01*
X1729Y1947D02*
X1635Y1930D01*
X1729Y1947D02*
X1829Y1973D01*
X1844Y1979D02*
X1894Y2012D01*
X1925Y2074D01*
X1925D02*
X1917Y2136D01*
X1917D02*
X1905Y2257D01*
X1905D02*
X1878Y2365D01*
X1855Y2472D02*
X1878Y2365D01*
X1856Y2591D02*
X1855Y2472D01*
X1914Y2602D02*
X1856Y2591D01*
X1962Y2583D02*
X1914Y2602D01*
X2027Y2541D02*
X1962Y2583D01*
X2027Y2541D02*
X2101Y2491D01*
X2161Y2465D01*
Y2465D02*
X2212Y2463D01*
X2225Y2468D02*
X2273Y2502D01*
X2273D02*
X2327Y2564D01*
X2379Y2627D02*
X2327Y2564D01*
X2424Y2663D02*
X2379Y2627D01*
X2490Y2670D02*
X2424Y2663D01*
X2490Y2670D02*
X2484Y2494D01*
X2486Y2478D02*
X2504Y2382D01*
X2512Y2262D02*
X2504Y2382D01*
X2512Y2262D02*
X2498Y2240D01*
X2463Y2135D01*
Y2135D02*
X2459Y2010D01*
X2477Y1869D01*
X2472Y1844D02*
X2477Y1869D01*
X2426Y1735D02*
X2472Y1844D01*
X2426Y1735D02*
X2376Y1649D01*
X2322Y1559D01*
X2322D02*
X2223Y1307D01*
X2223Y1307D02*
X2187Y1099D01*
X2183Y932D01*
X2183D02*
X2210Y779D01*
X2213Y770D02*
X2300Y630D01*
X2319Y610D02*
X2300Y630D01*
X2358Y489D02*
X2319Y610D01*
X2345Y444D02*
X2358Y489D01*
X2302Y417D02*
X2345Y444D01*
X2251Y426D02*
X2296Y416D01*
X2161Y483D02*
X2251Y426D01*
X2068Y590D02*
X2161Y483D01*
X1987Y748D02*
X2068Y590D01*
X1987Y748D02*
X1974Y845D01*
X1974Y845D02*
X1908Y911D01*
X1902Y913D02*
X1810Y901D01*
X1804Y897D02*
X1767Y850D01*
Y850D02*
X1705Y763D01*
X1620Y630D02*
X1705Y763D01*
X1620Y630D02*
X1652Y620D01*
X1736Y596D02*
X1652Y620D01*
X1797Y564D02*
X1736Y596D01*
X1839Y489D02*
X1797Y564D01*
X1730Y456D02*
X1832Y478D01*
X1612Y454D02*
X1730Y456D01*
X1612Y454D02*
X1496Y455D01*
X1436Y455D02*
X1496Y455D01*
X1103Y465D02*
X1436Y455D01*
X1103Y465D02*
X770Y473D01*
X712Y457D01*
X494Y378D01*
X494D02*
X316Y269D01*
X315D02*
X299Y253D01*
X288Y212D01*
X302Y175D01*
Y175D02*
X341Y122D01*
X379Y76D02*
X341Y122D01*
X390Y51D02*
X382Y72D01*
X362Y28D02*
X384Y37D01*
X311Y25D02*
X362Y28D01*
X258Y44D02*
X311Y25D01*
X173Y106D02*
X258Y44D01*
X98Y241D02*
X98Y233D01*
X1629Y1929D02*
X1635Y1930D01*
X1829Y1973D02*
X1836Y1976D01*
X1844Y1979D01*
X2212Y2463D02*
X2218Y2465D01*
X2225Y2468D01*
X2484Y2494D02*
X2485Y2486D01*
X2486Y2478D01*
X2210Y779D02*
X2213Y770D01*
X2296Y416D02*
X2302Y417D01*
X1902Y913D02*
X1908Y911D01*
X1804Y897D02*
X1810Y901D01*
X1839Y489D02*
X1840Y481D01*
X1832Y478D02*
X1840Y481D01*
X379Y76D02*
X382Y72D01*
X389Y45D02*
X390Y51D01*
X386Y40D02*
X389Y45D01*
X384Y37D02*
X386Y40D01*
M02*
