G04*
G04 #@! TF.GenerationSoftware,Altium Limited,Altium Designer,18.1.11 (251)*
G04*
G04 Layer_Color=16711935*
%FSLAX25Y25*%
%MOIN*%
G70*
G01*
G75*
%ADD12C,0.00787*%
%ADD13C,0.00591*%
%ADD16C,0.00600*%
%ADD46C,0.00394*%
%ADD47C,0.00197*%
%ADD48R,0.16929X0.04528*%
D12*
X159500Y477000D02*
Y497000D01*
Y477000D02*
X189500D01*
Y497000D01*
X159500D02*
X189500D01*
D13*
X180764Y390819D02*
X180173D01*
X180764D01*
D16*
X222000Y500000D02*
X222000Y328500D01*
X100000D02*
X222000D01*
X100000D02*
Y500000D01*
X222000D01*
D46*
X187610Y456642D02*
X187346Y457626D01*
X186626Y458347D01*
X185642Y458610D01*
X184658Y458347D01*
X183937Y457626D01*
X183673Y456642D01*
X183937Y455657D01*
X184658Y454937D01*
X185642Y454673D01*
X186626Y454937D01*
X187346Y455657D01*
X187610Y456642D01*
X190622Y389543D02*
Y407457D01*
X203378D01*
Y389543D02*
Y407457D01*
X190622Y389543D02*
X203378D01*
X178331Y470744D02*
Y476256D01*
X169669Y470744D02*
Y476256D01*
X178331D01*
X169669Y470744D02*
X178331D01*
X145469Y325768D02*
X146272D01*
Y323366D02*
Y325768D01*
X171783D02*
X172585D01*
X171783Y323366D02*
Y325768D01*
X146272Y323366D02*
X171783D01*
X143280Y323858D02*
X143968Y323366D01*
X145469Y325768D01*
X143280Y323858D02*
X144460Y325728D01*
X173594D02*
X174776Y323858D01*
X172585Y325768D02*
X174086Y323366D01*
X174776Y323858D01*
X173594Y325768D02*
Y345453D01*
X144460Y325768D02*
Y345453D01*
X173594D01*
X185406Y375130D02*
Y378870D01*
X178516Y375130D02*
Y378870D01*
Y375130D02*
X185406D01*
X178516Y378870D02*
X185406D01*
X186331Y366744D02*
Y372256D01*
X177669Y366744D02*
Y372256D01*
Y366744D02*
X186331D01*
X177669Y372256D02*
X186331D01*
X149815Y460185D02*
X189185D01*
X149815Y420815D02*
X189185D01*
Y460185D01*
X149815Y420815D02*
Y460185D01*
X118012Y450633D02*
X124902D01*
X118012Y454373D02*
X124902D01*
Y450633D02*
Y454373D01*
X118012Y450633D02*
Y454373D01*
X124877Y441539D02*
Y446461D01*
X118184Y441539D02*
X124877D01*
X118184D02*
Y446461D01*
X124877D01*
X117760Y457130D02*
Y460870D01*
X124650Y457130D02*
Y460870D01*
X117760D02*
X124650D01*
X117760Y457130D02*
X124650D01*
X128035Y373993D02*
X144965D01*
Y402734D01*
X128035D02*
X144965D01*
X128035Y373993D02*
Y402734D01*
X116201Y416657D02*
X128799D01*
Y436343D01*
X116201D02*
X128799D01*
X116201Y416657D02*
Y436343D01*
X176370Y389055D02*
Y395945D01*
X172630Y389055D02*
Y395945D01*
X176370D01*
X172630Y389055D02*
X176370D01*
X135213Y382488D02*
X182615D01*
X135213Y317527D02*
X182615D01*
Y382488D01*
X135213Y317527D02*
Y382488D01*
X124130Y431102D02*
X127870D01*
X124130Y424213D02*
X127870D01*
X124130D02*
Y431102D01*
X127870Y424213D02*
Y431102D01*
X116630Y424138D02*
X120370D01*
X116630Y431028D02*
X120370D01*
Y424138D02*
Y431028D01*
X116630Y424138D02*
Y431028D01*
X181051Y388873D02*
X184791D01*
X181051Y395763D02*
X184791D01*
X181051Y388873D02*
Y395763D01*
X184791Y388873D02*
Y395763D01*
D47*
X175350Y394362D02*
X181650D01*
X175350Y389638D02*
Y394362D01*
Y389638D02*
X181650D01*
Y394362D01*
X180902D02*
Y395150D01*
X180035D02*
X180902D01*
X180035Y394362D02*
Y395150D01*
X178067Y394362D02*
Y395150D01*
X178933D01*
Y394362D02*
Y395150D01*
X176098Y394362D02*
Y395150D01*
X176965D01*
Y394362D02*
Y395150D01*
X180035Y388850D02*
Y389638D01*
Y388850D02*
X180902D01*
Y389638D01*
X178067Y388850D02*
Y389638D01*
Y388850D02*
X178933D01*
Y389638D01*
X176098Y388850D02*
Y389638D01*
Y388850D02*
X176965D01*
Y389638D01*
D48*
X136500Y400471D02*
D03*
M02*
