G04*
G04 #@! TF.GenerationSoftware,Altium Limited,Altium Designer,18.1.11 (251)*
G04*
G04 Layer_Color=65535*
%FSLAX25Y25*%
%MOIN*%
G70*
G01*
G75*
%ADD10C,0.00984*%
%ADD11C,0.02362*%
%ADD12C,0.00787*%
%ADD13C,0.00591*%
%ADD14C,0.00500*%
%ADD15C,0.00700*%
%ADD16C,0.00600*%
%ADD17C,0.01000*%
D10*
X189087Y462941D02*
X188348Y463367D01*
Y462515D01*
X189087Y462941D01*
X117633Y447799D02*
X116895Y448225D01*
Y447373D01*
X117633Y447799D01*
X127913Y413902D02*
X127175Y414328D01*
Y413475D01*
X127913Y413902D01*
D11*
X183476Y453295D02*
X183032Y454219D01*
X182033Y454447D01*
X181231Y453808D01*
Y452783D01*
X182033Y452144D01*
X183032Y452372D01*
X183476Y453295D01*
D12*
X191016Y398500D02*
X202984D01*
X152768Y457232D02*
X186232D01*
X152768Y423768D02*
X186232D01*
Y457232D01*
X152768Y423768D02*
Y457232D01*
X119956Y446657D02*
X123106D01*
X119956Y441343D02*
X123106D01*
X119956D02*
Y446657D01*
X123106Y441343D02*
Y446657D01*
X159500Y477000D02*
Y497000D01*
Y477000D02*
X189500D01*
Y497000D01*
X159500D02*
X189500D01*
X127642Y373600D02*
Y403127D01*
X145358Y373600D02*
Y403127D01*
X127642Y373600D02*
X129807D01*
X127642Y403127D02*
X129807D01*
X143193Y373600D02*
X145358D01*
X143193Y403127D02*
X145358D01*
X128996Y423350D02*
Y429650D01*
X121909Y436539D02*
X123091D01*
X121909Y416461D02*
X123091D01*
X116004Y423350D02*
Y429650D01*
D13*
X145469Y325768D02*
X146272D01*
Y323366D02*
Y325768D01*
X171783D02*
X172585D01*
X171783Y323366D02*
Y325768D01*
X146272Y323366D02*
X171783D01*
X143280Y323858D02*
X143968Y323366D01*
X145469Y325768D01*
X143280Y323858D02*
X144460Y325728D01*
X173594D02*
X174776Y323858D01*
X172585Y325768D02*
X174086Y323366D01*
X174776Y323858D01*
X144460Y338563D02*
Y345453D01*
Y325728D02*
Y329114D01*
X173594Y325728D02*
Y329114D01*
Y338563D02*
Y345453D01*
X144460D02*
X146823D01*
X171232D02*
X173594D01*
X187472Y378575D02*
Y379756D01*
X176449D02*
X187472D01*
X176449Y378575D02*
Y379756D01*
Y374244D02*
Y375425D01*
Y374244D02*
X187472D01*
Y375425D01*
X181961Y374244D02*
Y379756D01*
X182000Y365957D02*
Y373043D01*
X175307Y365957D02*
Y367532D01*
Y365957D02*
X188693D01*
Y367532D01*
Y371469D02*
Y373043D01*
X175307D02*
X188693D01*
X175307Y371469D02*
Y373043D01*
X115157Y449747D02*
Y450503D01*
Y449747D02*
X127756D01*
Y450503D01*
Y454503D02*
Y455259D01*
X115157D02*
X127756D01*
X115157Y454503D02*
Y455259D01*
X121457Y449747D02*
Y455259D01*
X115693Y456244D02*
Y457425D01*
Y456244D02*
X126717D01*
Y457425D01*
Y460575D02*
Y461756D01*
X115693D02*
X126717D01*
X115693Y460575D02*
Y461756D01*
X121205Y456244D02*
Y461756D01*
X176500Y386201D02*
X177256D01*
Y398799D01*
X176500D02*
X177256D01*
X171744D02*
X172500D01*
X171744Y386201D02*
Y398799D01*
Y386201D02*
X172500D01*
X171744Y392500D02*
X177256D01*
X180165Y392318D02*
X185677D01*
X180165Y386019D02*
X180921D01*
X180165D02*
Y398617D01*
X180921D01*
X184921D02*
X185677D01*
Y386019D02*
Y398617D01*
X184921Y386019D02*
X185677D01*
D14*
X113500Y362999D02*
Y360000D01*
X114999D01*
X115499Y360500D01*
Y362499D01*
X114999Y362999D01*
X113500D01*
X116499Y360000D02*
X117499D01*
X116999D01*
Y362999D01*
X116499Y362499D01*
X118998D02*
X119498Y362999D01*
X120498D01*
X120998Y362499D01*
Y361999D01*
X120498Y361500D01*
X119998D01*
X120498D01*
X120998Y361000D01*
Y360500D01*
X120498Y360000D01*
X119498D01*
X118998Y360500D01*
X114000Y413999D02*
Y411000D01*
X115499D01*
X115999Y411500D01*
Y413499D01*
X115499Y413999D01*
X114000D01*
X116999Y413499D02*
X117499Y413999D01*
X118499D01*
X118998Y413499D01*
Y412999D01*
X118499Y412500D01*
X118998Y412000D01*
Y411500D01*
X118499Y411000D01*
X117499D01*
X116999Y411500D01*
Y412000D01*
X117499Y412500D01*
X116999Y412999D01*
Y413499D01*
X117499Y412500D02*
X118499D01*
X114999Y466499D02*
X114499Y466999D01*
X113500D01*
X113000Y466499D01*
Y465999D01*
X113500Y465499D01*
X114499D01*
X114999Y465000D01*
Y464500D01*
X114499Y464000D01*
X113500D01*
X113000Y464500D01*
X117998Y466499D02*
X117499Y466999D01*
X116499D01*
X115999Y466499D01*
Y464500D01*
X116499Y464000D01*
X117499D01*
X117998Y464500D01*
X118998Y466999D02*
Y464000D01*
X120997D01*
X114999Y474999D02*
X114499Y475499D01*
X113500D01*
X113000Y474999D01*
Y474499D01*
X113500Y474000D01*
X114499D01*
X114999Y473500D01*
Y473000D01*
X114499Y472500D01*
X113500D01*
X113000Y473000D01*
X115999Y475499D02*
Y472500D01*
X117499D01*
X117998Y473000D01*
Y474999D01*
X117499Y475499D01*
X115999D01*
X118998Y472500D02*
Y474499D01*
X119998Y475499D01*
X120997Y474499D01*
Y472500D01*
Y474000D01*
X118998D01*
X113500Y495999D02*
Y493000D01*
X114999D01*
X115499Y493500D01*
Y495499D01*
X114999Y495999D01*
X113500D01*
X116499Y495499D02*
X116999Y495999D01*
X117999D01*
X118498Y495499D01*
Y493500D01*
X117999Y493000D01*
X116999D01*
X116499Y493500D01*
Y495499D01*
X205999Y425999D02*
X204000D01*
Y424500D01*
X205000Y424999D01*
X205500D01*
X205999Y424500D01*
Y423500D01*
X205500Y423000D01*
X204500D01*
X204000Y423500D01*
X206999Y425999D02*
Y424000D01*
X207999Y423000D01*
X208998Y424000D01*
Y425999D01*
X202999Y435499D02*
X202500Y435999D01*
X201500D01*
X201000Y435499D01*
Y433500D01*
X201500Y433000D01*
X202500D01*
X202999Y433500D01*
Y434500D01*
X202000D01*
X203999Y433000D02*
Y435999D01*
X205998Y433000D01*
Y435999D01*
X206998D02*
Y433000D01*
X208498D01*
X208997Y433500D01*
Y435499D01*
X208498Y435999D01*
X206998D01*
X195500Y443000D02*
Y444999D01*
X196500Y445999D01*
X197499Y444999D01*
Y443000D01*
Y444499D01*
X195500D01*
X198499Y445499D02*
X198999Y445999D01*
X199999D01*
X200498Y445499D01*
Y443500D01*
X199999Y443000D01*
X198999D01*
X198499Y443500D01*
Y445499D01*
X201498Y445999D02*
Y443000D01*
X202998D01*
X203497Y443500D01*
Y445499D01*
X202998Y445999D01*
X201498D01*
X204497Y443000D02*
X205497D01*
X204997D01*
Y445999D01*
X204497Y445499D01*
X208496Y443000D02*
Y445999D01*
X206996Y444499D01*
X208996D01*
X196000Y452500D02*
Y454499D01*
X197000Y455499D01*
X197999Y454499D01*
Y452500D01*
Y454000D01*
X196000D01*
X198999Y452500D02*
X199999D01*
X199499D01*
Y455499D01*
X198999Y454999D01*
X201498Y455499D02*
Y452500D01*
X202998D01*
X203498Y453000D01*
Y454999D01*
X202998Y455499D01*
X201498D01*
X204497Y452500D02*
X205497D01*
X204997D01*
Y455499D01*
X204497Y454999D01*
X208996Y455499D02*
X206996D01*
Y454000D01*
X207996Y454499D01*
X208496D01*
X208996Y454000D01*
Y453000D01*
X208496Y452500D01*
X207496D01*
X206996Y453000D01*
X195500Y463000D02*
Y464999D01*
X196500Y465999D01*
X197499Y464999D01*
Y463000D01*
Y464500D01*
X195500D01*
X200498Y463000D02*
X198499D01*
X200498Y464999D01*
Y465499D01*
X199999Y465999D01*
X198999D01*
X198499Y465499D01*
X201498Y465999D02*
Y463000D01*
X202998D01*
X203497Y463500D01*
Y465499D01*
X202998Y465999D01*
X201498D01*
X204497Y463000D02*
X205497D01*
X204997D01*
Y465999D01*
X204497Y465499D01*
X208996Y465999D02*
X207996Y465499D01*
X206996Y464500D01*
Y463500D01*
X207496Y463000D01*
X208496D01*
X208996Y463500D01*
Y464000D01*
X208496Y464500D01*
X206996D01*
X195500Y472500D02*
Y474499D01*
X196500Y475499D01*
X197499Y474499D01*
Y472500D01*
Y474000D01*
X195500D01*
X198499Y474999D02*
X198999Y475499D01*
X199999D01*
X200498Y474999D01*
Y474499D01*
X199999Y474000D01*
X199499D01*
X199999D01*
X200498Y473500D01*
Y473000D01*
X199999Y472500D01*
X198999D01*
X198499Y473000D01*
X201498Y475499D02*
Y472500D01*
X202998D01*
X203497Y473000D01*
Y474999D01*
X202998Y475499D01*
X201498D01*
X204497Y472500D02*
X205497D01*
X204997D01*
Y475499D01*
X204497Y474999D01*
X206996Y475499D02*
X208996D01*
Y474999D01*
X206996Y473000D01*
Y472500D01*
X195500Y483000D02*
Y484999D01*
X196500Y485999D01*
X197499Y484999D01*
Y483000D01*
Y484500D01*
X195500D01*
X199999Y483000D02*
Y485999D01*
X198499Y484500D01*
X200498D01*
X201498Y485999D02*
Y483000D01*
X202998D01*
X203497Y483500D01*
Y485499D01*
X202998Y485999D01*
X201498D01*
X204497Y483000D02*
X205497D01*
X204997D01*
Y485999D01*
X204497Y485499D01*
X206996D02*
X207496Y485999D01*
X208496D01*
X208996Y485499D01*
Y484999D01*
X208496Y484500D01*
X208996Y484000D01*
Y483500D01*
X208496Y483000D01*
X207496D01*
X206996Y483500D01*
Y484000D01*
X207496Y484500D01*
X206996Y484999D01*
Y485499D01*
X207496Y484500D02*
X208496D01*
X195500Y493000D02*
Y494999D01*
X196500Y495999D01*
X197499Y494999D01*
Y493000D01*
Y494499D01*
X195500D01*
X200498Y495999D02*
X198499D01*
Y494499D01*
X199499Y494999D01*
X199999D01*
X200498Y494499D01*
Y493500D01*
X199999Y493000D01*
X198999D01*
X198499Y493500D01*
X201498Y495999D02*
Y493000D01*
X202998D01*
X203497Y493500D01*
Y495499D01*
X202998Y495999D01*
X201498D01*
X204497Y493000D02*
X205497D01*
X204997D01*
Y495999D01*
X204497Y495499D01*
X206996Y493500D02*
X207496Y493000D01*
X208496D01*
X208996Y493500D01*
Y495499D01*
X208496Y495999D01*
X207496D01*
X206996Y495499D01*
Y494999D01*
X207496Y494499D01*
X208996D01*
D15*
X194643Y484518D02*
X191311D01*
Y482019D01*
X192977Y482852D01*
X193810D01*
X194643Y482019D01*
Y480353D01*
X193810Y479520D01*
X192144D01*
X191311Y480353D01*
X194348Y494998D02*
X192682Y494165D01*
X191016Y492499D01*
Y490833D01*
X191849Y490000D01*
X193515D01*
X194348Y490833D01*
Y491666D01*
X193515Y492499D01*
X191016D01*
X157478Y489362D02*
X154146D01*
X157478Y492695D01*
Y493528D01*
X156645Y494361D01*
X154979D01*
X154146Y493528D01*
X156114Y479520D02*
X157780D01*
X156947D01*
Y484518D01*
X156114Y483685D01*
D16*
X137396Y406888D02*
Y411001D01*
X139453Y408945D02*
X135339D01*
D17*
X204124Y385936D02*
X201500D01*
Y383968D01*
X202812D01*
X201500D01*
Y382000D01*
X205436D02*
X206748D01*
X206092D01*
Y385936D01*
X205436Y385280D01*
X131000Y416936D02*
Y416280D01*
X132312Y414968D01*
X133624Y416280D01*
Y416936D01*
X132312Y414968D02*
Y413000D01*
X134936D02*
X136248D01*
X135592D01*
Y416936D01*
X134936Y416280D01*
X158214Y354719D02*
X156902D01*
X157558D01*
Y351439D01*
X156902Y350783D01*
X156246D01*
X155590Y351439D01*
X162150Y354719D02*
X160838Y354063D01*
X159526Y352751D01*
Y351439D01*
X160182Y350783D01*
X161494D01*
X162150Y351439D01*
Y352095D01*
X161494Y352751D01*
X159526D01*
X143945Y467436D02*
Y464156D01*
X144601Y463500D01*
X145913D01*
X146569Y464156D01*
Y467436D01*
X147881Y463500D02*
X149193D01*
X148537D01*
Y467436D01*
X147881Y466780D01*
X170500Y402000D02*
Y405936D01*
X172468D01*
X173124Y405280D01*
Y403968D01*
X172468Y403312D01*
X170500D01*
X171812D02*
X173124Y402000D01*
X174436Y405280D02*
X175092Y405936D01*
X176404D01*
X177060Y405280D01*
Y404624D01*
X176404Y403968D01*
X175748D01*
X176404D01*
X177060Y403312D01*
Y402656D01*
X176404Y402000D01*
X175092D01*
X174436Y402656D01*
X129807Y450500D02*
Y454436D01*
X131775D01*
X132431Y453780D01*
Y452468D01*
X131775Y451812D01*
X129807D01*
X131119D02*
X132431Y450500D01*
X136367D02*
X133743D01*
X136367Y453124D01*
Y453780D01*
X135711Y454436D01*
X134399D01*
X133743Y453780D01*
X180821Y402075D02*
Y406010D01*
X182789D01*
X183445Y405354D01*
Y404042D01*
X182789Y403386D01*
X180821D01*
X182133D02*
X183445Y402075D01*
X184757D02*
X186069D01*
X185413D01*
Y406010D01*
X184757Y405354D01*
X129095Y445936D02*
Y442000D01*
X131062D01*
X131718Y442656D01*
Y445280D01*
X131062Y445936D01*
X129095D01*
X135654Y442000D02*
X133030D01*
X135654Y444624D01*
Y445280D01*
X134998Y445936D01*
X133686D01*
X133030Y445280D01*
X121124Y391280D02*
X120468Y391936D01*
X119156D01*
X118500Y391280D01*
Y388656D01*
X119156Y388000D01*
X120468D01*
X121124Y388656D01*
X122436Y391936D02*
X125060D01*
Y391280D01*
X122436Y388656D01*
Y388000D01*
X193624Y378280D02*
X192968Y378936D01*
X191656D01*
X191000Y378280D01*
Y375656D01*
X191656Y375000D01*
X192968D01*
X193624Y375656D01*
X197560Y378936D02*
X196248Y378280D01*
X194936Y376968D01*
Y375656D01*
X195592Y375000D01*
X196904D01*
X197560Y375656D01*
Y376312D01*
X196904Y376968D01*
X194936D01*
X193624Y370780D02*
X192968Y371436D01*
X191656D01*
X191000Y370780D01*
Y368156D01*
X191656Y367500D01*
X192968D01*
X193624Y368156D01*
X197560Y371436D02*
X194936D01*
Y369468D01*
X196248Y370124D01*
X196904D01*
X197560Y369468D01*
Y368156D01*
X196904Y367500D01*
X195592D01*
X194936Y368156D01*
X131718Y460705D02*
X131062Y461361D01*
X129750D01*
X129095Y460705D01*
Y458081D01*
X129750Y457425D01*
X131062D01*
X131718Y458081D01*
X135654Y457425D02*
X133030D01*
X135654Y460049D01*
Y460705D01*
X134998Y461361D01*
X133686D01*
X133030Y460705D01*
M02*
