G04*
G04 #@! TF.GenerationSoftware,Altium Limited,Altium Designer,18.1.11 (251)*
G04*
G04 Layer_Color=8421504*
%FSLAX25Y25*%
%MOIN*%
G70*
G01*
G75*
%ADD18R,0.13504X0.03347*%
%ADD19R,0.07087X0.07480*%
%ADD20R,0.01575X0.05315*%
%ADD21R,0.03543X0.03937*%
%ADD22R,0.05118X0.05512*%
%ADD23O,0.02362X0.08071*%
%ADD24O,0.08071X0.02362*%
%ADD25R,0.03937X0.03543*%
%ADD26R,0.02480X0.03268*%
%ADD27R,0.11024X0.09449*%
%ADD28R,0.05512X0.06299*%
G36*
X148791Y330020D02*
X141825D01*
X140957Y330379D01*
X140293Y331044D01*
X139933Y331912D01*
Y332382D01*
Y335138D01*
Y335608D01*
X140293Y336476D01*
X140957Y337140D01*
X141825Y337500D01*
X148791D01*
Y330020D01*
D02*
G37*
G36*
X177098Y337140D02*
X177762Y336476D01*
X178122Y335608D01*
Y335138D01*
Y332382D01*
Y331912D01*
X177762Y331044D01*
X177098Y330379D01*
X176230Y330020D01*
X169264D01*
Y337500D01*
X176230D01*
X177098Y337140D01*
D02*
G37*
D18*
X197000Y389445D02*
D03*
Y407555D02*
D03*
D19*
X163555Y333760D02*
D03*
X154500D02*
D03*
D20*
X153909Y344783D02*
D03*
X164146D02*
D03*
X156468D02*
D03*
X159028D02*
D03*
X161586D02*
D03*
D21*
X184618Y377000D02*
D03*
X179303D02*
D03*
X118547Y459000D02*
D03*
X123862D02*
D03*
X174500Y396043D02*
D03*
Y388957D02*
D03*
X182921Y388775D02*
D03*
Y395861D02*
D03*
D22*
X185150Y369500D02*
D03*
X178850D02*
D03*
D23*
X185248Y462941D02*
D03*
X182098D02*
D03*
X178949D02*
D03*
X175799D02*
D03*
X172650D02*
D03*
X169500D02*
D03*
X166350D02*
D03*
X163201D02*
D03*
X160051D02*
D03*
X156902D02*
D03*
X153752D02*
D03*
Y418059D02*
D03*
X156902D02*
D03*
X160051D02*
D03*
X163201D02*
D03*
X166350D02*
D03*
X169500D02*
D03*
X172650D02*
D03*
X175799D02*
D03*
X178949D02*
D03*
X182098D02*
D03*
X185248D02*
D03*
D24*
X147059Y456248D02*
D03*
Y453098D02*
D03*
Y449949D02*
D03*
Y446799D02*
D03*
Y443650D02*
D03*
Y440500D02*
D03*
Y437350D02*
D03*
Y434201D02*
D03*
Y431051D02*
D03*
Y427902D02*
D03*
Y424752D02*
D03*
X191941D02*
D03*
Y427902D02*
D03*
Y431051D02*
D03*
Y434201D02*
D03*
Y437350D02*
D03*
Y440500D02*
D03*
Y443650D02*
D03*
Y446799D02*
D03*
Y449949D02*
D03*
Y453098D02*
D03*
Y456248D02*
D03*
D25*
X125000Y452503D02*
D03*
X117913D02*
D03*
D26*
X117141Y444000D02*
D03*
X125920D02*
D03*
D27*
X136500Y400962D02*
D03*
Y375765D02*
D03*
D28*
X127028Y419020D02*
D03*
Y433980D02*
D03*
X117972D02*
D03*
Y419020D02*
D03*
M02*
