M48
;Layer_Color=9474304
;FILE_FORMAT=2:5
INCH,TZ
;TYPE=PLATED
T1F00S00C0.01181
T3F00S00C0.02800
T5F00S00C0.03622
T6F00S00C0.04331
T7F00S00C0.09055
T8F00S00C0.12598
%
T01
X103450Y397000
X118500Y424925
X114900Y429200
X132550Y425000
X135900Y437850
X141400Y435800
X152800Y436400
X153657Y428200
X150600Y414400
X140500Y415690
Y409397
X139606Y367000
X142670
X146000
X152800Y363000
X153750Y448500
X139231Y458373
X118263Y458647
X160500Y452700
X168240Y447410
X169500Y457300
X174815Y453000
X183400Y454000
X185935Y441156
X185100Y428450
X177599Y429500
X177699Y424300
X166350Y425118
X169500Y412000
X166656Y406000
X172650Y406210
X172100Y399800
X168450Y388900
X174500Y385400
X184000Y385200
X181600Y382600
X184618Y377000
X193500Y383034
X200500Y378205
Y365500
X178500Y347829
X162673Y383840
X160220Y392000
X160051Y406300
X179000Y408300
X186739Y395861
X209431Y416750
X211800Y419000
X205500Y431206
X185248Y475902
X182000Y473000
X176143Y472500
X164802Y472258
X154000Y482000
T03
X106332Y335264
X103362Y342432
X106332Y349601
X113500Y352570
X120669Y349601
X123638Y342432
X120669Y335264
X113500Y332294
X197289Y335351
X204458Y332382
X211626Y335351
X214596Y342520
X211626Y349688
X204458Y352657
X197289Y349688
X194320Y342520
X139669Y478332
X142638Y485500
X139669Y492669
X132500Y495638
X125332Y492669
X122362Y485500
X125332Y478332
X132500Y475362
T05
X153993Y368669
Y376543
X163835
Y368669
T06
X106000Y362000
Y372000
Y382000
Y392000
Y402000
Y412000
Y424000
Y434000
Y444000
Y454000
Y464000
X216000
Y454000
Y444000
Y434000
Y424000
Y412000
Y402000
Y392000
Y382000
Y372000
Y362000
Y474000
Y484000
Y494000
X184500Y492000
X174500
Y482000
X164500
Y492000
X184500Y482000
X106000Y484000
Y494000
Y474000
T07
X135213Y358000
X182615
T08
X114173Y342500
X204724
X132500Y484252
M30
